<svg width="37" height="22" viewBox="0 0 37 22" fill="none" xmlns="http://www.w3.org/2000/svg">
<path d="M36.3292 0H1.1785C0.831862 0 0.550781 0.25918 0.550781 0.578893V21.4204C0.550781 21.7401 0.831862 21.9994 1.1785 21.9994H36.3293C36.6759 21.9994 36.957 21.7401 36.957 21.4204V0.578893C36.9569 0.25918 36.6759 0 36.3292 0Z" fill="#82C3D2"/>
<path d="M4.79429 2.63542C4.73748 2.41355 4.72333 2.33177 4.83127 2.23228C4.88388 2.18375 4.88388 2.10512 4.83127 2.05659C4.77865 2.00806 4.69339 2.00806 4.64077 2.05659C4.42234 2.25812 4.47446 2.46726 4.53099 2.68873C4.35877 2.63686 4.18015 2.67535 4.08444 2.78671C4.03694 2.84226 3.94508 2.99808 4.11722 3.2469C4.15725 3.30468 4.24002 3.32167 4.30323 3.28507C4.36602 3.24815 4.3843 3.17122 4.34426 3.11351C4.2797 3.01979 4.27778 2.96201 4.29584 2.9409C4.31717 2.91591 4.3833 2.90273 4.45256 2.92535C4.49728 2.93965 4.60124 2.98917 4.60124 3.13869C4.60124 3.25812 4.54137 3.36757 4.43698 3.43867C4.33239 3.51002 4.197 3.53015 4.06652 3.49277C3.9054 3.44739 3.79284 3.29084 3.79284 3.112C3.79284 2.98405 3.82256 2.85472 3.87717 2.7414C3.88584 2.72467 4.09177 2.33125 4.14481 2.1846C4.24969 1.89453 4.1431 1.74868 4.07036 1.68775C3.97302 1.60597 3.83074 1.58558 3.70829 1.63509C3.68966 1.6427 3.6743 1.65372 3.65816 1.66395C3.64202 1.65365 3.62659 1.6427 3.60803 1.63509C3.48566 1.58558 3.34345 1.60597 3.24596 1.68775C3.17322 1.74868 3.06663 1.8946 3.17152 2.1846C3.22456 2.33125 3.43041 2.72467 3.43724 2.73779C3.49362 2.85479 3.52342 2.98411 3.52342 3.11207C3.52342 3.29097 3.41093 3.44745 3.24973 3.49284C3.11876 3.53015 2.9838 3.51028 2.87927 3.43873C2.77489 3.36757 2.71502 3.25818 2.71502 3.13876C2.71502 2.98923 2.81897 2.93978 2.8637 2.92542C2.93317 2.90286 2.99894 2.91591 3.02042 2.94096C3.03848 2.96208 3.03656 3.01986 2.97199 3.11357C2.93196 3.17135 2.95023 3.24828 3.01302 3.28514C3.0763 3.32206 3.15936 3.30481 3.19903 3.24697C3.37111 2.99815 3.27931 2.84239 3.23181 2.78678C3.13603 2.67542 2.95749 2.63692 2.78527 2.6888C2.84187 2.46746 2.89392 2.25819 2.67548 2.05665C2.62286 2.00812 2.53761 2.00812 2.48499 2.05665C2.43237 2.10518 2.43237 2.18382 2.48499 2.23235C2.59286 2.33184 2.57885 2.41362 2.52196 2.63548C2.48783 2.76842 2.44545 2.93421 2.44545 3.13856C2.44545 3.27451 2.49729 3.40456 2.58447 3.5114H2.58013C2.50568 3.5114 2.44538 3.56694 2.44538 3.63567C2.44538 3.70434 2.50561 3.75995 2.58013 3.75995H2.58447C2.49729 3.86678 2.44545 3.99677 2.44545 4.13272C2.44545 4.33707 2.48783 4.50286 2.52189 4.63587C2.57871 4.85773 2.59286 4.93951 2.48492 5.039C2.4323 5.08753 2.4323 5.16616 2.48492 5.21469C2.51123 5.23896 2.54571 5.25109 2.5802 5.25109C2.61462 5.25109 2.64917 5.23896 2.67548 5.21469C2.89392 5.01316 2.8418 4.80395 2.78527 4.58255C2.95749 4.63423 3.1361 4.59593 3.23181 4.48457C3.27931 4.42902 3.37118 4.2732 3.19903 4.02438C3.15914 3.9666 3.07588 3.94942 3.01302 3.98621C2.95023 4.02313 2.93196 4.10006 2.97199 4.15777C3.03656 4.25149 3.03848 4.30927 3.02042 4.33038C2.99901 4.35511 2.93317 4.36823 2.8637 4.34593C2.81897 4.33163 2.71502 4.28212 2.71502 4.13259C2.71502 4.01316 2.77489 3.90371 2.87927 3.83262C2.98387 3.76126 3.11911 3.74087 3.24973 3.77851C3.41086 3.82389 3.52342 3.98044 3.52342 4.15928C3.52342 4.28723 3.4937 4.41656 3.43724 4.53356L2.55474 6.36468C2.48222 6.51512 2.44538 6.67514 2.44538 6.83988C2.44538 7.05191 2.54991 7.24551 2.71445 7.36369C2.54998 7.48187 2.44538 7.67546 2.44538 7.88749C2.44538 8.0523 2.48229 8.21225 2.55474 8.3627L3.4371 10.1937C3.49348 10.3107 3.52328 10.44 3.52328 10.568C3.52328 10.7469 3.41079 10.9033 3.24959 10.9487C3.11861 10.9864 2.98365 10.9662 2.87913 10.8946C2.77475 10.8235 2.71487 10.7141 2.71487 10.5947C2.71487 10.4451 2.81883 10.3957 2.86356 10.3813C2.93303 10.359 2.9988 10.3718 3.02027 10.3969C3.03833 10.418 3.03641 10.4758 2.97185 10.5695C2.93182 10.6272 2.95009 10.7042 3.01288 10.741C3.07616 10.778 3.15921 10.7609 3.19889 10.7029C3.37097 10.454 3.27917 10.2983 3.23167 10.2427C3.13589 10.1313 2.95735 10.093 2.78513 10.1447C2.84173 9.92336 2.89378 9.71408 2.67534 9.51255C2.62272 9.46402 2.53747 9.46402 2.48485 9.51255C2.43223 9.56108 2.43223 9.63971 2.48485 9.68824C2.59271 9.78773 2.57871 9.86951 2.52182 10.0914C2.48776 10.2244 2.44538 10.3902 2.44538 10.5945C2.44538 10.7305 2.49722 10.8605 2.5844 10.9674H2.58006C2.50561 10.9674 2.44531 11.0229 2.44531 11.0916C2.44531 11.1604 2.50554 11.2159 2.58006 11.2159H2.5844C2.49715 11.3227 2.44538 11.4527 2.44538 11.5887C2.44538 11.7931 2.48776 11.9589 2.52182 12.0919C2.57864 12.3138 2.59279 12.3955 2.48485 12.495C2.43223 12.5436 2.43223 12.6222 2.48485 12.6707C2.51116 12.695 2.54564 12.7071 2.58013 12.7071C2.61454 12.7071 2.6491 12.695 2.67541 12.6707C2.89385 12.4692 2.84173 12.26 2.7852 12.0386C2.95742 12.0903 3.13603 12.052 3.23174 11.9406C3.27924 11.885 3.37111 11.7292 3.19896 11.4804C3.15907 11.4226 3.07581 11.4054 3.01295 11.4422C2.95016 11.4792 2.93189 11.5561 2.97192 11.6138C3.03649 11.7075 3.03841 11.7653 3.02034 11.7864C2.99894 11.8114 2.9331 11.8246 2.86363 11.802C2.8189 11.7877 2.71495 11.7381 2.71495 11.5886C2.71495 11.4692 2.77482 11.3597 2.8792 11.2886C2.9838 11.2173 3.11904 11.1969 3.24966 11.2345C3.41079 11.2799 3.52335 11.4365 3.52335 11.6153C3.52335 11.7433 3.49362 11.8726 3.43717 11.9896L2.55474 13.8209C2.48222 13.9713 2.44538 14.1314 2.44538 14.2961C2.44538 14.5081 2.54991 14.7017 2.71445 14.8199C2.54998 14.9381 2.44538 15.1317 2.44538 15.3437C2.44538 15.5085 2.48229 15.6685 2.55474 15.8189L3.4371 17.6499C3.49348 17.7669 3.52328 17.8962 3.52328 18.0242C3.52328 18.2031 3.41079 18.3596 3.24959 18.405C3.11861 18.4426 2.98365 18.4222 2.87913 18.3509C2.77475 18.2797 2.71487 18.1703 2.71487 18.0509C2.71487 17.9014 2.81883 17.8519 2.86356 17.8375C2.93303 17.8152 2.9988 17.828 3.02027 17.8531C3.03833 17.8742 3.03641 17.932 2.97185 18.0257C2.93182 18.0835 2.95009 18.1603 3.01288 18.1973C3.07616 18.2342 3.15921 18.2171 3.19889 18.1591C3.37097 17.9103 3.27917 17.7545 3.23167 17.6989C3.13589 17.5872 2.95735 17.549 2.78513 17.6009C2.84173 17.3796 2.89378 17.1703 2.67534 16.9688C2.62272 16.9202 2.53747 16.9202 2.48485 16.9688C2.43223 17.0173 2.43223 17.0959 2.48485 17.1445C2.59271 17.244 2.57871 17.3257 2.52182 17.5476C2.48776 17.6806 2.44538 17.8463 2.44538 18.0507C2.44538 18.2455 2.54657 18.4309 2.71573 18.5478C2.54657 18.6647 2.44538 18.8501 2.44538 19.0449C2.44538 19.2493 2.48776 19.4151 2.52182 19.5481C2.57864 19.7698 2.59279 19.8517 2.48485 19.9512C2.43223 19.9997 2.43223 20.0783 2.48485 20.1269C2.51116 20.1511 2.54564 20.1633 2.58013 20.1633C2.61454 20.1633 2.6491 20.1511 2.67541 20.1269C2.89385 19.9253 2.84173 19.7161 2.7852 19.4947C2.95742 19.5464 3.13603 19.5081 3.23174 19.3968C3.27924 19.3412 3.37111 19.1854 3.19896 18.9366C3.15907 18.8788 3.07581 18.8618 3.01295 18.8984C2.95016 18.9353 2.93189 19.0122 2.97192 19.07C3.03649 19.1637 3.03841 19.2215 3.02034 19.2426C2.99894 19.2676 2.9331 19.2804 2.86363 19.2581C2.8189 19.2438 2.71495 19.1943 2.71495 19.0448C2.71495 18.9253 2.77482 18.8159 2.8792 18.7448C2.9838 18.6735 3.11904 18.6533 3.24966 18.6907C3.41079 18.7361 3.52335 18.8926 3.52335 19.0715C3.52335 19.1994 3.49362 19.3287 3.43902 19.4421C3.43034 19.4588 3.22442 19.8522 3.17137 19.9989C3.06649 20.2889 3.17308 20.4348 3.24582 20.4957C3.30804 20.5479 3.38817 20.5753 3.47009 20.5753C3.51652 20.5753 3.56359 20.5663 3.60796 20.5484C3.62659 20.5408 3.64195 20.5298 3.65809 20.5196C3.67423 20.5299 3.68966 20.5408 3.70822 20.5484C3.75252 20.5664 3.79966 20.5753 3.8461 20.5753C3.9278 20.5753 4.00807 20.5479 4.07036 20.4957C4.1431 20.4348 4.24969 20.2889 4.14481 19.9989C4.09177 19.8522 3.88592 19.4588 3.87909 19.4457C3.8227 19.3287 3.79291 19.1994 3.79291 19.0714C3.79291 18.8925 3.9054 18.7359 4.0666 18.6906C4.19764 18.6532 4.33253 18.6734 4.43706 18.7447C4.54144 18.8159 4.60131 18.9253 4.60131 19.0447C4.60131 19.1942 4.49735 19.2437 4.45263 19.258C4.38344 19.2804 4.31717 19.2676 4.29591 19.2425C4.27785 19.2214 4.27977 19.1636 4.34433 19.0699C4.38437 19.0121 4.36609 18.9353 4.30331 18.8983C4.24038 18.8619 4.1574 18.8789 4.11729 18.9365C3.94522 19.1853 4.03701 19.3411 4.08451 19.3967C4.18029 19.508 4.35884 19.5464 4.53106 19.4947C4.47446 19.716 4.42241 19.9253 4.64085 20.1268C4.66715 20.1511 4.70164 20.1632 4.73613 20.1632C4.77061 20.1632 4.8051 20.1511 4.83141 20.1268C4.88403 20.0783 4.88403 19.9996 4.83141 19.9511C4.72354 19.8516 4.73755 19.7698 4.79443 19.548C4.82849 19.415 4.87087 19.2492 4.87087 19.0448C4.87087 18.8501 4.76969 18.6646 4.60053 18.5477C4.76969 18.4309 4.87087 18.2455 4.87087 18.0506C4.87087 17.8463 4.82849 17.6805 4.79443 17.5475C4.73762 17.3257 4.72347 17.2438 4.83141 17.1443C4.88403 17.0958 4.88403 17.0172 4.83141 16.9686C4.77879 16.9201 4.69353 16.9201 4.64092 16.9686C4.42248 17.1702 4.4746 17.3793 4.53113 17.6008C4.35891 17.5489 4.18029 17.5871 4.08458 17.6988C4.03709 17.7543 3.94522 17.9101 4.11736 18.159C4.1574 18.2167 4.24016 18.2337 4.30338 18.1971C4.36616 18.1602 4.38444 18.0833 4.34441 18.0256C4.27984 17.9318 4.27792 17.8741 4.29598 17.853C4.31731 17.828 4.38344 17.8151 4.4527 17.8374C4.49742 17.8517 4.60138 17.9012 4.60138 18.0507C4.60138 18.1702 4.54151 18.2796 4.43713 18.3507C4.33253 18.4221 4.19715 18.4425 4.06667 18.4048C3.90554 18.3594 3.79298 18.2029 3.79298 18.0241C3.79298 17.8961 3.8227 17.7668 3.87916 17.6498L4.76151 15.8188C4.83404 15.6683 4.87087 15.5083 4.87087 15.3436C4.87087 15.1316 4.76635 14.938 4.60181 14.8198C4.76628 14.7016 4.87087 14.508 4.87087 14.296C4.87087 14.1312 4.83397 13.9712 4.76151 13.8208L3.87923 11.9899C3.82284 11.8729 3.79305 11.7436 3.79305 11.6156C3.79305 11.4367 3.90554 11.2802 4.06674 11.2349C4.19779 11.1975 4.33267 11.2176 4.4372 11.289C4.54158 11.3601 4.60145 11.4695 4.60145 11.5889C4.60145 11.7385 4.4975 11.7879 4.45277 11.8023C4.38358 11.8248 4.31731 11.8118 4.29605 11.7867C4.27799 11.7656 4.27991 11.7078 4.34448 11.6141C4.38451 11.5564 4.36623 11.4795 4.30345 11.4426C4.24052 11.4062 4.15754 11.4232 4.11744 11.4807C3.94536 11.7296 4.03716 11.8853 4.08466 11.9409C4.18044 12.0523 4.35898 12.0906 4.5312 12.0389C4.4746 12.2602 4.42255 12.4695 4.64099 12.671C4.6673 12.6953 4.70178 12.7074 4.73627 12.7074C4.77076 12.7074 4.80524 12.6953 4.83155 12.671C4.88417 12.6225 4.88417 12.5439 4.83155 12.4954C4.72368 12.3959 4.73769 12.3141 4.79458 12.0922C4.82864 11.9592 4.87101 11.7934 4.87101 11.5891C4.87101 11.4531 4.81918 11.3231 4.732 11.2162H4.73634C4.81079 11.2162 4.87109 11.1607 4.87109 11.092C4.87109 11.0233 4.81086 10.9677 4.73634 10.9677H4.732C4.81925 10.8609 4.87101 10.7309 4.87101 10.5949C4.87101 10.3905 4.82864 10.2247 4.79458 10.0917C4.73776 9.86984 4.72361 9.78806 4.83155 9.68857C4.88417 9.64004 4.88417 9.56141 4.83155 9.51288C4.77893 9.46435 4.69368 9.46435 4.64106 9.51288C4.42262 9.71441 4.47474 9.92362 4.53127 10.145C4.35905 10.0933 4.18044 10.1316 4.08473 10.243C4.03723 10.2986 3.94536 10.4544 4.11751 10.7032C4.15754 10.761 4.24031 10.7778 4.30352 10.7414C4.36631 10.7044 4.38458 10.6275 4.34455 10.5698C4.27998 10.4761 4.27806 10.4183 4.29612 10.3972C4.31746 10.3722 4.38358 10.3593 4.45284 10.3816C4.49757 10.3959 4.60152 10.4455 4.60152 10.595C4.60152 10.7144 4.54165 10.8239 4.43727 10.895C4.33267 10.9663 4.19729 10.9864 4.06681 10.9491C3.90568 10.9037 3.79312 10.7471 3.79312 10.5683C3.79312 10.4403 3.82284 10.311 3.8793 10.194L4.76165 8.36303C4.83418 8.21258 4.87101 8.05256 4.87101 7.88782C4.87101 7.67579 4.76649 7.48219 4.60195 7.36401C4.76642 7.24584 4.87101 7.05224 4.87101 6.84021C4.87101 6.6754 4.83411 6.51545 4.76165 6.365L3.8793 4.53402C3.82292 4.41702 3.79312 4.28769 3.79312 4.15974C3.79312 3.98083 3.90561 3.82435 4.06681 3.77897C4.19786 3.74159 4.33274 3.76172 4.43727 3.83308C4.54165 3.90423 4.60152 4.01362 4.60152 4.13305C4.60152 4.28258 4.49757 4.33202 4.45284 4.34639C4.38366 4.36875 4.31738 4.35557 4.29612 4.33084C4.27806 4.30973 4.27998 4.25195 4.34455 4.15823C4.38458 4.10045 4.36631 4.02353 4.30352 3.98667C4.24059 3.95027 4.15761 3.96699 4.11751 4.02477C3.94543 4.27359 4.03723 4.42935 4.08473 4.48496C4.18051 4.59632 4.35905 4.63469 4.53127 4.58294C4.47467 4.80428 4.42262 5.01355 4.64106 5.21509C4.66737 5.23935 4.70185 5.25148 4.73634 5.25148C4.77083 5.25148 4.80531 5.23935 4.83162 5.21509C4.88424 5.16656 4.88424 5.08792 4.83162 5.03939C4.72375 4.9399 4.73776 4.85812 4.79465 4.63626C4.82871 4.50326 4.87109 4.33747 4.87109 4.13311C4.87109 3.99716 4.81925 3.86711 4.73207 3.76028H4.73641C4.81086 3.76028 4.87116 3.70473 4.87116 3.636C4.87116 3.56734 4.81093 3.51172 4.73641 3.51172H4.73207C4.81932 3.40489 4.87109 3.27497 4.87109 3.13889C4.87066 2.93421 4.82828 2.76842 4.79429 2.63542ZM3.42693 2.10584C3.37907 1.97336 3.39578 1.89788 3.42735 1.87138C3.44797 1.85341 3.47926 1.85414 3.4991 1.8624C3.52342 1.87237 3.52342 1.88817 3.52342 1.89591C3.52342 1.96458 3.58364 2.02019 3.65816 2.02019C3.73261 2.02019 3.79291 1.96464 3.79291 1.89591C3.79291 1.88817 3.79291 1.87237 3.81723 1.8624C3.83671 1.85414 3.86778 1.85341 3.88897 1.87138C3.92054 1.89788 3.93725 1.97336 3.8894 2.10584C3.85456 2.20192 3.72849 2.45205 3.65823 2.5878C3.5894 2.4552 3.46198 2.20257 3.42693 2.10584ZM3.65809 7.23338C3.69677 7.28184 3.7405 7.32696 3.79369 7.36369C3.7405 7.40048 3.69677 7.44553 3.65809 7.494C3.61941 7.44553 3.57568 7.40041 3.52249 7.36369C3.57568 7.3269 3.61941 7.28191 3.65809 7.23338ZM3.65809 14.6895C3.69677 14.738 3.7405 14.7831 3.79369 14.8198C3.7405 14.8566 3.69677 14.9017 3.65809 14.9502C3.61941 14.9017 3.57568 14.8566 3.52249 14.8198C3.57568 14.7831 3.61941 14.7381 3.65809 14.6895ZM3.88919 20.0778C3.93704 20.2102 3.92033 20.2857 3.88876 20.3122C3.86757 20.3299 3.8365 20.3292 3.81701 20.3212C3.7927 20.3112 3.7927 20.2955 3.7927 20.2877C3.7927 20.219 3.73247 20.1634 3.65795 20.1634C3.58343 20.1634 3.5232 20.219 3.5232 20.2877C3.5232 20.2954 3.5232 20.3112 3.49889 20.3212C3.47912 20.3292 3.44783 20.33 3.42714 20.3122C3.39557 20.2857 3.37886 20.2102 3.42671 20.0778C3.46156 19.9817 3.58763 19.7316 3.65788 19.5958C3.72671 19.7283 3.85413 19.981 3.88919 20.0778ZM3.79241 18.5479C3.74143 18.5845 3.6962 18.6283 3.65809 18.6778C3.62005 18.6283 3.57476 18.5846 3.52377 18.5479C3.57476 18.5113 3.61998 18.4675 3.65809 18.418C3.69613 18.4675 3.74136 18.5113 3.79241 18.5479ZM4.51499 15.7179L3.65802 17.4962L2.80105 15.7179C2.74467 15.6009 2.71487 15.4715 2.71487 15.3436C2.71487 15.1647 2.82736 15.0081 2.98856 14.9628C3.11954 14.9254 3.25464 14.9456 3.35902 15.0169C3.4634 15.0881 3.52328 15.1975 3.52328 15.3169C3.52328 15.4664 3.41932 15.5159 3.37459 15.5302C3.30512 15.5526 3.23907 15.5397 3.21788 15.5147C3.19982 15.4936 3.20174 15.4358 3.2663 15.3421C3.30633 15.2843 3.28806 15.2074 3.22527 15.1705C3.16234 15.1341 3.07936 15.1511 3.03926 15.2087C2.86718 15.4575 2.95898 15.6133 3.00648 15.6689C3.10404 15.7825 3.28756 15.8215 3.46305 15.7649C3.48303 15.7586 3.5033 15.7507 3.52328 15.7413V16.0555C3.52328 16.0555 3.52306 16.0553 3.52306 16.0553C3.51901 15.9899 3.46028 15.9383 3.3886 15.9383C3.31415 15.9383 3.25386 15.9938 3.25386 16.0626C3.25386 16.1436 3.31529 16.2842 3.52328 16.3278V16.5596C3.52328 16.6283 3.5835 16.6839 3.65802 16.6839C3.73254 16.6839 3.79277 16.6283 3.79277 16.5596V16.3278C4.00075 16.2842 4.06219 16.1436 4.06219 16.0626C4.06219 15.9939 4.0021 15.9342 3.92773 15.9342C3.85328 15.9342 3.79326 15.9857 3.79326 16.0544C3.79319 16.0546 3.79277 16.0549 3.7927 16.0551V15.7414C3.81268 15.7508 3.83294 15.7587 3.85292 15.7651C4.02841 15.8216 4.21186 15.7825 4.30949 15.669C4.35699 15.6135 4.44886 15.4576 4.27671 15.2088C4.23668 15.151 4.15356 15.134 4.0907 15.1706C4.02791 15.2076 4.00964 15.2845 4.04967 15.3422C4.11424 15.4359 4.11616 15.4937 4.09809 15.5148C4.07676 15.5398 4.01071 15.5527 3.94138 15.5304C3.89665 15.5161 3.7927 15.4665 3.7927 15.317C3.7927 15.1976 3.85257 15.0881 3.95695 15.0171C4.06155 14.9457 4.19693 14.9253 4.32741 14.9629C4.48854 15.0083 4.6011 15.1649 4.6011 15.3437C4.60124 15.4715 4.57152 15.6009 4.51499 15.7179ZM4.51499 13.9218C4.57137 14.0388 4.60117 14.1682 4.60117 14.2961C4.60117 14.475 4.48868 14.6315 4.32748 14.6769C4.19672 14.7145 4.0614 14.6941 3.95702 14.6228C3.85264 14.5516 3.79277 14.4422 3.79277 14.3228C3.79277 14.1733 3.89672 14.1238 3.94145 14.1095C4.01078 14.0871 4.07691 14.1 4.09817 14.125C4.11623 14.1461 4.11431 14.2039 4.04974 14.2976C4.00971 14.3554 4.02798 14.4323 4.09077 14.4692C4.15406 14.5061 4.23711 14.489 4.27678 14.431C4.44886 14.1822 4.35706 14.0264 4.30956 13.9708C4.21194 13.8572 4.02848 13.8186 3.85299 13.8747C3.83301 13.8811 3.81275 13.8891 3.79277 13.8984V13.5841L3.79298 13.5845C3.79703 13.6497 3.85577 13.7015 3.92744 13.7015C4.00189 13.7015 4.06219 13.6459 4.06219 13.5772C4.06219 13.4961 4.00075 13.3555 3.79277 13.312V13.0802C3.79277 13.0115 3.73254 12.9559 3.65802 12.9559C3.5835 12.9559 3.52328 13.0114 3.52328 13.0802V13.312C3.31529 13.3555 3.25386 13.4961 3.25386 13.5772C3.25386 13.6459 3.31394 13.7055 3.38832 13.7055C3.46276 13.7055 3.52278 13.6541 3.52278 13.5854C3.52285 13.5852 3.52328 13.5849 3.52328 13.5849L3.52335 13.8984C3.50337 13.889 3.4831 13.881 3.46312 13.8747C3.28763 13.8186 3.10411 13.8572 3.00655 13.9708C2.95905 14.0263 2.86718 14.1821 3.03933 14.4309C3.07936 14.4887 3.16249 14.5055 3.22534 14.4691C3.28813 14.4322 3.3064 14.3553 3.26637 14.2976C3.20181 14.2038 3.19989 14.1461 3.21795 14.1249C3.23914 14.1 3.30519 14.0871 3.37466 14.1094C3.41939 14.1237 3.52335 14.1732 3.52335 14.3227C3.52335 14.4422 3.46348 14.5516 3.35909 14.6227C3.2545 14.6941 3.1194 14.7145 2.98863 14.6768C2.82751 14.6314 2.71495 14.4749 2.71495 14.296C2.71495 14.1681 2.74467 14.0388 2.80113 13.9218L3.65809 12.1434L4.51499 13.9218ZM3.79241 11.0918C3.74143 11.1284 3.6962 11.1722 3.65809 11.2218C3.62005 11.1722 3.57476 11.1285 3.52377 11.0918C3.57476 11.0552 3.61998 11.0114 3.65809 10.9619C3.69613 11.0114 3.74136 11.0552 3.79241 11.0918ZM4.51499 8.26177L3.65802 10.0401L2.80105 8.26177C2.74467 8.14477 2.71487 8.01544 2.71487 7.88749C2.71487 7.70858 2.82736 7.5521 2.98856 7.50672C3.11954 7.46934 3.25464 7.48947 3.35902 7.56083C3.4634 7.63198 3.52328 7.74137 3.52328 7.8608C3.52328 8.01033 3.41932 8.05978 3.37459 8.07414C3.30512 8.0967 3.23907 8.08365 3.21788 8.0586C3.19982 8.03748 3.20174 7.9797 3.2663 7.88598C3.30633 7.8282 3.28806 7.75128 3.22527 7.71442C3.16234 7.67783 3.07936 7.69475 3.03926 7.75259C2.86718 8.00141 2.95898 8.15716 3.00648 8.21278C3.10404 8.32637 3.28756 8.36519 3.46305 8.30886C3.48303 8.30249 3.5033 8.29456 3.52328 8.28518V8.59945L3.52306 8.59906C3.51901 8.5338 3.46028 8.48206 3.3886 8.48206C3.31415 8.48206 3.25386 8.53761 3.25386 8.60634C3.25386 8.6874 3.31529 8.828 3.52328 8.87155V9.10338C3.52328 9.17205 3.5835 9.22766 3.65802 9.22766C3.73254 9.22766 3.79277 9.17211 3.79277 9.10338V8.87155C4.00075 8.828 4.06219 8.6874 4.06219 8.60634C4.06219 8.53767 4.0021 8.47793 3.92773 8.47793C3.85328 8.47793 3.79326 8.52941 3.79326 8.59807C3.79319 8.59827 3.79277 8.5986 3.79277 8.5986L3.7927 8.28512C3.81268 8.29449 3.83294 8.30243 3.85292 8.30879C4.02841 8.36506 4.21186 8.32624 4.30949 8.21271C4.35699 8.15717 4.44886 8.00134 4.27671 7.75252C4.23668 7.69448 4.15356 7.67756 4.0907 7.71435C4.02791 7.75128 4.00964 7.82821 4.04967 7.88592C4.11424 7.97963 4.11616 8.03741 4.09809 8.05853C4.07676 8.08352 4.01071 8.0967 3.94138 8.07407C3.89665 8.05978 3.7927 8.01026 3.7927 7.86073C3.7927 7.74131 3.85257 7.63185 3.95695 7.56076C4.06155 7.48941 4.19693 7.46927 4.32741 7.50666C4.48854 7.55204 4.6011 7.70858 4.6011 7.88743C4.60124 8.01544 4.57152 8.14477 4.51499 8.26177ZM4.51499 6.46567C4.57137 6.58267 4.60117 6.712 4.60117 6.83995C4.60117 7.01886 4.48868 7.17534 4.32748 7.22072C4.19672 7.25836 4.0614 7.23797 3.95702 7.16661C3.85264 7.09546 3.79277 6.98607 3.79277 6.86664C3.79277 6.71711 3.89672 6.66767 3.94145 6.6533C4.01078 6.63094 4.07691 6.64379 4.09817 6.66885C4.11623 6.68996 4.11431 6.74774 4.04974 6.84146C4.00971 6.89923 4.02798 6.9761 4.09077 7.01302C4.15406 7.04961 4.23711 7.03289 4.27678 6.97485C4.44886 6.72603 4.35706 6.57028 4.30956 6.51466C4.21194 6.40107 4.02848 6.36225 3.85299 6.41858C3.83301 6.42494 3.81275 6.43288 3.79277 6.44226V6.12799C3.79277 6.12805 3.79298 6.12819 3.79298 6.12819C3.79703 6.19364 3.85577 6.24525 3.92744 6.24525C4.00189 6.24525 4.06219 6.1897 4.06219 6.12097C4.06219 6.03991 4.00075 5.8993 3.79277 5.85576V5.62393C3.79277 5.55526 3.73254 5.49965 3.65802 5.49965C3.5835 5.49965 3.52328 5.5552 3.52328 5.62393V5.85576C3.31529 5.8993 3.25386 6.03991 3.25386 6.12097C3.25386 6.18964 3.31394 6.24938 3.38832 6.24938C3.46276 6.24938 3.52278 6.1979 3.52278 6.12924C3.52285 6.12904 3.52328 6.12871 3.52335 6.12851V6.44219C3.50337 6.43281 3.4831 6.42488 3.46312 6.41852C3.28763 6.36225 3.10411 6.40107 3.00655 6.5146C2.95905 6.57014 2.86718 6.72597 3.03933 6.97479C3.07936 7.03256 3.16249 7.04935 3.22534 7.01295C3.28813 6.97603 3.3064 6.8991 3.26637 6.84139C3.20181 6.74767 3.19989 6.6899 3.21795 6.66878C3.23914 6.64379 3.30519 6.63094 3.37466 6.65324C3.41939 6.66753 3.52335 6.71705 3.52335 6.86658C3.52335 6.986 3.46348 7.09546 3.35909 7.16655C3.2545 7.2379 3.1194 7.2583 2.98863 7.22065C2.82751 7.17527 2.71495 7.01873 2.71495 6.83988C2.71495 6.71193 2.74467 6.5826 2.80113 6.46561L3.65809 4.68728L4.51499 6.46567ZM3.5237 3.63567C3.57469 3.59908 3.61991 3.55527 3.65802 3.50576C3.69606 3.55527 3.74136 3.59901 3.79234 3.63567C3.74136 3.67227 3.69613 3.71608 3.65802 3.76559C3.61998 3.71608 3.57476 3.67227 3.5237 3.63567Z" fill="#FFE15A"/>
<path d="M19.8132 12.6166C21.6041 12.6166 23.056 11.2776 23.056 9.6257C23.056 7.97385 21.6041 6.63477 19.8132 6.63477C18.0222 6.63477 16.5703 7.97385 16.5703 9.6257C16.5703 11.2776 18.0222 12.6166 19.8132 12.6166Z" fill="#FFE15A"/>
<path d="M20.0607 5.81265C20.0607 5.93654 19.9518 6.03701 19.8175 6.03701C19.6832 6.03701 19.5742 5.93654 19.5742 5.81265C19.5742 5.68877 19.8175 5.13965 19.8175 5.13965C19.8175 5.13965 20.0607 5.68877 20.0607 5.81265Z" fill="#FFE15A"/>
<path d="M19.5742 13.4392C19.5742 13.3153 19.6832 13.2148 19.8175 13.2148C19.9518 13.2148 20.0607 13.3153 20.0607 13.4392C20.0607 13.5631 19.8175 14.1122 19.8175 14.1122C19.8175 14.1122 19.5742 13.5631 19.5742 13.4392Z" fill="#FFE15A"/>
<path d="M23.9581 9.8491C23.8238 9.8491 23.7148 9.74863 23.7148 9.62475C23.7148 9.50086 23.8238 9.40039 23.9581 9.40039C24.0924 9.40039 24.6878 9.62475 24.6878 9.62475C24.6878 9.62475 24.0924 9.8491 23.9581 9.8491Z" fill="#FFE15A"/>
<path d="M15.6789 9.40039C15.8132 9.40039 15.9222 9.50086 15.9222 9.62475C15.9222 9.74863 15.8132 9.8491 15.6789 9.8491C15.5446 9.8491 14.9492 9.62475 14.9492 9.62475C14.9492 9.62475 15.5446 9.40039 15.6789 9.40039Z" fill="#FFE15A"/>
<path d="M22.9075 7.08379C22.8125 7.17141 22.6585 7.17141 22.5635 7.08379C22.4684 6.99617 22.4685 6.85419 22.5635 6.7665C22.6585 6.67882 23.2514 6.44922 23.2514 6.44922C23.2514 6.44922 23.0025 6.99617 22.9075 7.08379Z" fill="#FFE15A"/>
<path d="M16.715 12.1634C16.81 12.0758 16.964 12.0758 17.059 12.1634C17.1541 12.251 17.154 12.393 17.059 12.4807C16.964 12.5683 16.3711 12.7979 16.3711 12.7979C16.3711 12.7979 16.62 12.2511 16.715 12.1634Z" fill="#FFE15A"/>
<path d="M22.5634 12.4807C22.4684 12.3931 22.4684 12.2511 22.5634 12.1634C22.6584 12.0757 22.8124 12.0758 22.9074 12.1634C23.0025 12.251 23.2515 12.7979 23.2515 12.7979C23.2515 12.7979 22.6584 12.5682 22.5634 12.4807Z" fill="#FFE15A"/>
<path d="M17.0591 6.76644C17.1541 6.85406 17.1541 6.99604 17.0591 7.08373C16.9641 7.17141 16.8102 7.17134 16.7151 7.08373C16.62 6.99611 16.3711 6.44922 16.3711 6.44922C16.3711 6.44922 16.9641 6.67889 17.0591 6.76644Z" fill="#FFE15A"/>
<path d="M18.4571 6.01549C18.5085 6.13 18.4496 6.26117 18.3254 6.30858C18.2013 6.356 18.0591 6.30163 18.0077 6.18712C17.9563 6.07262 17.9531 5.47949 17.9531 5.47949C17.9531 5.47949 18.4057 5.90099 18.4571 6.01549Z" fill="#FFE15A"/>
<path d="M21.1709 13.235C21.1195 13.1205 21.1785 12.9894 21.3026 12.9419C21.4268 12.8945 21.569 12.9489 21.6204 13.0634C21.6718 13.1779 21.6749 13.771 21.6749 13.771C21.6749 13.771 21.2223 13.3495 21.1709 13.235Z" fill="#FFE15A"/>
<path d="M23.7348 8.37207C23.6106 8.41949 23.4684 8.36512 23.417 8.25061C23.3656 8.13611 23.4246 8.00494 23.5487 7.95753C23.6729 7.91011 24.3159 7.90723 24.3159 7.90723C24.3159 7.90723 23.8589 8.32459 23.7348 8.37207Z" fill="#FFE15A"/>
<path d="M15.9015 10.8794C16.0256 10.832 16.1678 10.8864 16.2192 11.0009C16.2706 11.1154 16.2117 11.2466 16.0875 11.294C15.9634 11.3414 15.3203 11.3443 15.3203 11.3443C15.3203 11.3443 15.7773 10.9269 15.9015 10.8794Z" fill="#FFE15A"/>
<path d="M21.6204 6.18706C21.5689 6.30156 21.4267 6.35587 21.3026 6.30852C21.1784 6.2611 21.1196 6.12987 21.1709 6.01543C21.2223 5.90099 21.6748 5.47949 21.6748 5.47949C21.6748 5.47949 21.6718 6.07262 21.6204 6.18706Z" fill="#FFE15A"/>
<path d="M18.0076 13.0634C18.059 12.9489 18.2013 12.8946 18.3254 12.9419C18.4495 12.9893 18.5084 13.1206 18.4571 13.235C18.4056 13.3495 17.9531 13.7709 17.9531 13.7709C17.9531 13.7709 17.9562 13.1779 18.0076 13.0634Z" fill="#FFE15A"/>
<path d="M23.5487 11.294C23.4245 11.2465 23.3656 11.1153 23.417 11.0009C23.4684 10.8864 23.6107 10.8321 23.7348 10.8794C23.8588 10.9268 24.3158 11.3442 24.3158 11.3442C24.3158 11.3442 23.6727 11.3414 23.5487 11.294Z" fill="#FFE15A"/>
<path d="M16.0875 7.95746C16.2116 8.00488 16.2705 8.13611 16.2192 8.25055C16.1678 8.36499 16.0255 8.41936 15.9014 8.37201C15.7773 8.32459 15.3203 7.90723 15.3203 7.90723C15.3203 7.90723 15.9635 7.90998 16.0875 7.95746Z" fill="#FFE15A"/>
<path d="M19.2425 5.84193C19.2688 5.96345 19.1832 6.08156 19.0514 6.1057C18.9196 6.1299 18.7916 6.051 18.7654 5.92941C18.7392 5.80789 18.8616 5.22559 18.8616 5.22559C18.8616 5.22559 19.2163 5.7204 19.2425 5.84193Z" fill="#FFE15A"/>
<path d="M20.3836 13.4117C20.3574 13.2902 20.4429 13.1721 20.5748 13.1479C20.7066 13.1237 20.8346 13.2026 20.8608 13.3242C20.887 13.4457 20.7646 14.028 20.7646 14.028C20.7646 14.028 20.4098 13.5332 20.3836 13.4117Z" fill="#FFE15A"/>
<path d="M23.9157 9.10068C23.784 9.12488 23.6559 9.04599 23.6297 8.9244C23.6035 8.80281 23.689 8.68476 23.8209 8.66063C23.9526 8.63643 24.584 8.74936 24.584 8.74936C24.584 8.74936 24.0475 9.07655 23.9157 9.10068Z" fill="#FFE15A"/>
<path d="M15.7151 10.1489C15.8469 10.1247 15.9749 10.2036 16.0011 10.3252C16.0274 10.4468 15.9418 10.5648 15.81 10.589C15.6782 10.6132 15.0469 10.5002 15.0469 10.5002C15.0469 10.5002 15.5834 10.173 15.7151 10.1489Z" fill="#FFE15A"/>
<path d="M22.3166 6.58174C22.242 6.68477 22.0909 6.71245 21.9792 6.64359C21.8675 6.57473 21.8375 6.43543 21.9121 6.3324C21.9867 6.22937 22.5197 5.89746 22.5197 5.89746C22.5197 5.89746 22.3912 6.47865 22.3166 6.58174Z" fill="#FFE15A"/>
<path d="M17.3203 12.672C17.3949 12.5689 17.546 12.5413 17.6577 12.6101C17.7694 12.6789 17.7994 12.8183 17.7248 12.9213C17.6502 13.0243 17.1172 13.3563 17.1172 13.3563C17.1172 13.3563 17.2457 12.7751 17.3203 12.672Z" fill="#FFE15A"/>
<path d="M23.112 11.9304C23.0003 11.8616 22.9703 11.7223 23.045 11.6192C23.1196 11.5162 23.2706 11.4885 23.3824 11.5574C23.4941 11.6262 23.8539 12.1178 23.8539 12.1178C23.8539 12.1178 23.2237 11.9992 23.112 11.9304Z" fill="#FFE15A"/>
<path d="M16.5193 7.3192C16.631 7.388 16.661 7.52736 16.5863 7.63039C16.5117 7.73342 16.3606 7.7611 16.2489 7.69223C16.1372 7.62337 15.7773 7.13184 15.7773 7.13184C15.7773 7.13184 16.4076 7.25041 16.5193 7.3192Z" fill="#FFE15A"/>
<path d="M17.7248 6.33234C17.7994 6.43536 17.7694 6.57466 17.6577 6.64352C17.5461 6.71238 17.395 6.68464 17.3203 6.58168C17.2457 6.47865 17.1172 5.89746 17.1172 5.89746C17.1172 5.89746 17.6502 6.22937 17.7248 6.33234Z" fill="#FFE15A"/>
<path d="M21.9121 12.9213C21.8375 12.8182 21.8675 12.6789 21.9791 12.6101C22.0908 12.5413 22.2419 12.569 22.3165 12.6719C22.3911 12.775 22.5197 13.3561 22.5197 13.3561C22.5197 13.3561 21.9868 13.0242 21.9121 12.9213Z" fill="#FFE15A"/>
<path d="M23.3823 7.69223C23.2706 7.76103 23.1196 7.73336 23.0449 7.63039C22.9703 7.52736 23.0003 7.38806 23.112 7.3192C23.2237 7.25041 23.8538 7.13184 23.8538 7.13184C23.8538 7.13184 23.494 7.62344 23.3823 7.69223Z" fill="#FFE15A"/>
<path d="M16.2488 11.5573C16.3606 11.4886 16.5116 11.5162 16.5862 11.6192C16.6608 11.7222 16.6308 11.8615 16.5192 11.9304C16.4075 11.9992 15.7773 12.1177 15.7773 12.1177C15.7773 12.1177 16.1371 11.6261 16.2488 11.5573Z" fill="#FFE15A"/>
<path d="M20.8608 5.92941C20.8345 6.05094 20.7065 6.1299 20.5748 6.1057C20.443 6.0815 20.3574 5.96345 20.3836 5.84193C20.4099 5.7204 20.7645 5.22559 20.7645 5.22559C20.7645 5.22559 20.8869 5.80789 20.8608 5.92941Z" fill="#FFE15A"/>
<path d="M18.7654 13.3242C18.7916 13.2027 18.9196 13.1237 19.0514 13.1479C19.1831 13.1721 19.2687 13.2902 19.2425 13.4117C19.2163 13.5332 18.8616 14.028 18.8616 14.028C18.8616 14.028 18.7392 13.4457 18.7654 13.3242Z" fill="#FFE15A"/>
<path d="M23.8209 10.5889C23.6891 10.5647 23.6035 10.4467 23.6297 10.3252C23.656 10.2037 23.784 10.1247 23.9157 10.1489C24.0475 10.1731 24.584 10.5002 24.584 10.5002C24.584 10.5002 23.9526 10.6131 23.8209 10.5889Z" fill="#FFE15A"/>
<path d="M15.81 8.66061C15.9417 8.68481 16.0274 8.80286 16.0011 8.92438C15.9749 9.04591 15.8469 9.12487 15.7151 9.10067C15.5834 9.07647 15.0469 8.74934 15.0469 8.74934C15.0469 8.74934 15.6782 8.63648 15.81 8.66061Z" fill="#FFE15A"/>
<path d="M27.447 10.414C27.352 10.3771 27.2434 10.4194 27.2038 10.5065C27.2038 10.5068 27.2038 10.5068 27.2038 10.5068C27.2031 10.5085 27.1994 10.5166 27.193 10.5303C27.0525 10.8332 26.7616 11.2758 26.468 11.6922C26.7415 10.8801 26.9916 10.0127 27.009 9.9517C27.0351 9.8606 26.9767 9.76708 26.878 9.74236C26.7793 9.7179 26.6777 9.77089 26.6501 9.86159C26.5224 10.2834 26.2614 10.8386 26.0206 11.3085C26.0647 10.7845 26.073 10.2991 26.0736 10.2639C26.0751 10.1711 25.9963 10.0944 25.8956 10.09C25.801 10.0927 25.7097 10.1564 25.7022 10.2491C25.4641 13.2703 22.312 14.6219 22.0052 14.7462C21.8446 14.761 21.0966 14.8387 20.4178 15.0561C20.3409 15.0807 20.2753 15.1055 20.21 15.13C20.1858 15.1216 20.1597 15.1169 20.1324 15.1184C18.0488 15.2574 16.3875 14.4691 15.1935 12.7803C14.2914 11.5042 14.0085 10.1647 14.0057 10.1513C13.9866 10.0582 13.8899 9.9982 13.7885 10.0147C13.6876 10.0324 13.6212 10.1218 13.6403 10.2149C13.6479 10.2519 13.772 10.8366 14.1139 11.6061C13.6565 10.9401 13.3377 10.1333 13.2255 9.71311C13.2232 9.70472 13.2174 9.69835 13.214 9.69062C13.2087 9.67874 13.2043 9.66681 13.1966 9.65651C13.1911 9.64923 13.1839 9.64392 13.1774 9.63756C13.1673 9.62766 13.1575 9.61795 13.1451 9.61054C13.138 9.60628 13.13 9.60418 13.1223 9.60083C13.1085 9.59493 13.0951 9.58909 13.0798 9.5864C13.0692 9.5845 13.0584 9.58575 13.0474 9.58555C13.0362 9.58542 13.0257 9.5828 13.0143 9.58463C13.0118 9.58503 13.0099 9.5866 13.0074 9.58713C13.0049 9.58759 13.0027 9.58686 13.0003 9.58732C12.9903 9.58955 12.9827 9.59532 12.9736 9.59893C12.962 9.60359 12.9501 9.60706 12.94 9.61356C12.9299 9.61992 12.9225 9.62818 12.9141 9.63612C12.9058 9.64399 12.8971 9.65094 12.8906 9.66005C12.884 9.6693 12.8804 9.67973 12.8757 9.69002C12.8713 9.70006 12.8661 9.7095 12.8637 9.72032C12.8613 9.73141 12.8624 9.74282 12.8625 9.75443C12.8625 9.76367 12.8597 9.77253 12.8615 9.78197C12.8622 9.78604 12.8636 9.7901 12.8644 9.79404V9.79469C12.8646 9.79542 12.8649 9.7964 12.8651 9.79719C12.9801 10.4224 13.2543 11.0705 13.5023 11.5647C13.1085 11.1526 12.7795 10.6779 12.6629 10.3967C12.6596 10.3885 12.6528 10.3828 12.6483 10.3755C12.6414 10.3641 12.6353 10.3525 12.626 10.3432C12.6194 10.3365 12.6114 10.3321 12.6038 10.3266C12.5925 10.3182 12.5818 10.3097 12.5687 10.3039C12.5603 10.3003 12.5512 10.2991 12.5423 10.2965C12.5286 10.2927 12.5153 10.2885 12.5007 10.2877C12.4893 10.287 12.4779 10.2896 12.4663 10.291C12.4556 10.2923 12.445 10.291 12.4343 10.2941C12.4323 10.2947 12.4308 10.2962 12.4289 10.2969C12.4269 10.2974 12.4249 10.2971 12.4229 10.2978C12.4128 10.3013 12.4057 10.3082 12.3966 10.3131C12.386 10.3189 12.3747 10.3237 12.3657 10.3312C12.3565 10.3388 12.3501 10.3483 12.3428 10.3575C12.3359 10.366 12.3282 10.3737 12.3231 10.3833C12.3178 10.3933 12.3158 10.4042 12.3127 10.415C12.3097 10.4256 12.3056 10.4354 12.3048 10.4465C12.304 10.4576 12.307 10.4687 12.3085 10.4799C12.3099 10.4896 12.3085 10.4992 12.3117 10.5088C12.5141 11.1109 13.0008 11.8271 13.382 12.3317C13.0643 12.1059 12.8308 11.8617 12.763 11.788C12.7557 11.78 12.7485 11.7719 12.7412 11.7639C12.6757 11.6912 12.5598 11.6808 12.4804 11.7401C12.4013 11.7997 12.3888 11.907 12.4528 11.9803C12.4563 11.9843 12.4702 12.0004 12.4936 12.0255C12.7726 12.3317 13.0765 12.6175 13.3519 12.8588L12.9752 12.7107C12.8893 12.6765 12.7884 12.7073 12.7414 12.7827C12.6943 12.8581 12.7155 12.9535 12.7909 13.0058C12.8276 13.0309 13.4947 13.4906 14.0722 13.7623C14.0178 13.7653 13.9539 13.7616 13.8823 13.7566C13.795 13.7488 13.7091 13.8065 13.6878 13.8882C13.6669 13.9702 13.7134 14.0541 13.7979 14.0862C13.8121 14.0916 13.9881 14.1585 14.2054 14.2299C14.1547 14.249 14.1144 14.2882 14.0977 14.3391C14.0727 14.4151 14.1079 14.4976 14.1827 14.5371C14.2022 14.5475 14.465 14.6865 14.7903 14.8098C14.7817 14.8222 14.7746 14.8355 14.7692 14.8503C14.7438 14.9223 14.7728 15.0014 14.8406 15.0446C14.8971 15.0804 16.1603 15.8711 17.6356 15.8711C17.7324 15.8711 17.8303 15.8677 17.9287 15.8604C18.0309 15.853 18.1074 15.7703 18.0992 15.6758C18.0911 15.5813 18.0023 15.5099 17.8989 15.5186C16.9721 15.5883 16.0793 15.2674 15.5483 15.0221C15.6184 15.0063 15.6587 14.9919 15.6687 14.9883C15.7506 14.9574 15.7978 14.878 15.7818 14.798C15.7658 14.7179 15.691 14.6592 15.6026 14.6575C15.387 14.6535 15.0884 14.5567 14.8312 14.4528C14.9284 14.4079 14.9851 14.365 14.9901 14.3613C15.046 14.3181 15.0696 14.2491 15.0506 14.1841C15.0314 14.1194 14.9728 14.0708 14.901 14.0602C14.822 14.0481 14.7235 14.0246 14.6204 13.9958C14.7207 13.9426 14.7633 13.8839 14.7797 13.8541C14.8055 13.8065 14.8061 13.7509 14.7813 13.703C14.7564 13.6551 14.7091 13.6206 14.6527 13.6095C14.604 13.5998 14.5489 13.5834 14.4894 13.5619C14.5003 13.5519 14.5103 13.5405 14.5184 13.5274C14.5658 13.4534 14.5462 13.3582 14.4727 13.305C14.4689 13.3023 14.3245 13.1978 14.1059 13.0239C14.1406 13.0122 14.1713 12.9904 14.1935 12.9609C14.2403 12.8986 14.2371 12.8152 14.1857 12.7562C14.1815 12.7515 14.037 12.5838 13.8377 12.3292C13.9035 12.3763 13.9692 12.4245 14.0349 12.4634C14.0658 12.4815 14.1008 12.4906 14.1355 12.4906C14.1826 12.4906 14.229 12.4742 14.2648 12.4423C14.2795 12.4292 14.291 12.4141 14.3001 12.398C14.413 12.5092 14.5315 12.6101 14.656 12.6962C14.6722 12.7075 14.6919 12.7073 14.7101 12.7129C14.7629 12.7945 14.8178 12.8762 14.8754 12.9579C16.0048 14.5606 17.5972 15.4191 19.5071 15.4706C19.3312 15.5691 19.1403 15.6709 18.838 15.7795C18.772 15.8033 18.7137 15.827 18.6552 15.8508C18.6269 15.8559 18.6003 15.8654 18.5782 15.8816C18.0506 16.1068 17.8322 16.3294 17.7436 16.4851C17.6551 16.6399 17.7314 16.7987 17.8394 16.8811C17.873 16.9065 17.9157 16.9196 17.9585 16.9196C17.988 16.9196 18.0174 16.9136 18.0441 16.9012C18.1098 16.871 18.1538 16.807 18.1509 16.7397C18.1585 16.732 18.1908 16.7072 18.2922 16.7042C18.366 16.6985 18.5215 16.7139 18.703 16.7272C18.8756 16.7404 19.0827 16.7552 19.3029 16.7657C19.1651 16.9138 19.0051 17.0854 19.0051 17.0854C18.957 17.137 18.9464 17.21 18.9784 17.2713C19.0105 17.333 19.0798 17.3712 19.1524 17.3688C19.2994 17.364 19.3992 17.3614 19.4648 17.3601C19.5219 17.4292 19.5921 17.4566 19.6373 17.4673C19.7653 17.4974 19.8927 17.4502 19.9887 17.3943C20.0614 17.4425 20.1341 17.4629 20.1917 17.4707C20.3215 17.4871 20.4418 17.4523 20.5287 17.4127C20.6188 17.4664 20.7071 17.4801 20.7743 17.4801C20.7752 17.4801 20.7763 17.4801 20.7774 17.4801C20.9225 17.4794 21.0495 17.4147 21.1393 17.3514C21.2187 17.3949 21.2946 17.409 21.3533 17.4114C21.4864 17.4157 21.5968 17.3685 21.6702 17.3242C21.9323 17.3728 22.1582 17.2589 22.3075 17.1333C22.3756 17.1698 22.4404 17.1788 22.492 17.1765C22.6248 17.1722 22.7259 17.0977 22.7908 17.0311C23.088 17.0642 23.3012 17.0136 23.4244 16.8787C23.4916 16.8053 23.5189 16.7226 23.5263 16.6472C24.3507 16.6428 24.4253 16.2277 24.4314 16.1764C24.4368 16.1298 24.4214 16.0833 24.3886 16.0475C24.3558 16.0117 24.3084 15.9895 24.2578 15.9868L22.0965 15.8669C22.006 15.8609 21.9253 15.9168 21.9043 15.9983C21.9039 15.9996 21.8671 16.1262 21.7518 16.2275C21.5967 16.3641 21.3469 16.4363 21.0752 16.4745C21.0762 16.4515 21.0727 16.4282 21.0631 16.4054C21.0261 16.317 20.9182 16.274 20.8227 16.3073C20.3765 16.4669 19.654 16.4469 19.0889 16.4106C19.1756 16.3453 19.28 16.2806 19.3634 16.2383C19.4338 16.2025 19.4717 16.1291 19.4567 16.0561C19.4459 16.0031 19.4043 15.9662 19.3541 15.9424C19.5113 15.8692 19.6401 15.7985 19.7623 15.7298C19.9745 15.6099 20.175 15.4969 20.54 15.3801C21.2447 15.1543 22.0602 15.0856 22.0684 15.0849C22.0869 15.0835 22.1051 15.0792 22.1223 15.0728C22.1513 15.0617 24.4516 14.173 25.5353 12.1222C25.5211 12.1842 25.5058 12.2408 25.4893 12.2904C25.461 12.3748 25.5067 12.4649 25.5949 12.499C25.6632 12.5255 25.7408 12.5118 25.7933 12.4669C25.7248 12.6334 25.6629 12.7644 25.6124 12.8418C25.5608 12.9205 25.5857 13.0227 25.6687 13.0736C25.6882 13.0853 25.709 13.0933 25.7304 13.0981C25.6465 13.2113 25.5614 13.3185 25.4766 13.4167C25.4202 13.482 25.4234 13.5752 25.4824 13.6368C25.3368 13.7775 25.2077 13.8934 25.1096 13.9672C25.0455 14.015 25.0246 14.0951 25.054 14.1635C24.9594 14.2134 24.8817 14.2486 24.8278 14.2637C24.7373 14.2888 24.6818 14.3728 24.6989 14.4586C24.7077 14.5039 24.7353 14.542 24.7734 14.5672C24.6597 14.5953 24.5353 14.6225 24.4002 14.6472C24.3241 14.6612 24.2654 14.7172 24.253 14.7879C24.2407 14.8585 24.277 14.9289 24.3443 14.9644C24.3501 14.9674 24.4136 15.0006 24.5109 15.0388C24.1511 15.1724 23.5087 15.347 22.4545 15.4428C22.3524 15.4522 22.2776 15.5363 22.2878 15.6305C22.2978 15.7246 22.3861 15.7899 22.4912 15.7846C24.4923 15.602 25.1102 15.14 25.1354 15.1202C25.1932 15.0756 25.2161 15.003 25.1932 14.9367C25.178 14.8928 25.1445 14.8573 25.1016 14.8368C25.7409 14.6512 26.0154 14.4458 26.0297 14.4348C26.0999 14.3811 26.1175 14.2884 26.0713 14.2156C26.0248 14.1429 25.9281 14.1114 25.8436 14.1429C25.8198 14.1513 25.7819 14.16 25.7339 14.1687C26.1629 13.8977 26.6184 13.575 26.8187 13.431C26.8539 13.4069 26.8859 13.3837 26.914 13.3619C26.9918 13.3016 27.0027 13.195 26.9385 13.1224C26.8748 13.0501 26.7586 13.0379 26.6791 13.0959C26.6501 13.117 26.6198 13.1388 26.5886 13.1612C26.4962 13.2246 26.3779 13.2963 26.249 13.3699C26.7359 12.86 27.2261 12.3072 27.3661 12.1484C27.3788 12.134 27.3913 12.1196 27.4041 12.1052C27.4684 12.0315 27.4558 11.9236 27.3759 11.8643C27.2958 11.8041 27.1787 11.8165 27.1145 11.8898L27.1141 11.8902L27.114 11.8906C27.1105 11.8942 27.0948 11.9123 27.0682 11.9425C26.9215 12.1076 26.7671 12.2675 26.6147 12.4169C27.1108 11.5877 27.4863 10.7715 27.5414 10.6506C27.5434 10.6463 27.5452 10.6419 27.5472 10.6375C27.5866 10.5507 27.5418 10.4502 27.447 10.414ZM18.7301 16.1962L18.7809 16.2023C18.7186 16.256 18.6679 16.3162 18.6276 16.3783C18.5393 16.3718 18.4592 16.366 18.3964 16.3635C18.4829 16.3113 18.5943 16.2547 18.7301 16.1962Z" fill="#FFE15A"/>
</svg>
