<svg width="34" height="22" viewBox="0 0 34 22" fill="none" xmlns="http://www.w3.org/2000/svg">
<path d="M33.8057 1.10022V20.8992C33.8076 21.0309 33.7818 21.1618 33.7299 21.2841C33.5745 21.6713 33.2038 21.9447 32.7682 21.9936C32.7257 21.9983 32.6828 22.0001 32.64 21.9991H1.16586C1.12301 22.0001 1.08016 21.9983 1.03764 21.9936C0.601996 21.9447 0.231324 21.6713 0.0758978 21.2841C0.023935 21.1618 -0.00181531 21.0309 9.94544e-05 20.8992V1.10022C-0.00181531 0.968457 0.023935 0.837624 0.0758978 0.715264C0.231258 0.328123 0.60193 0.0546825 1.03764 0.00577598C1.08016 0.00104107 1.12301 -0.000765982 1.16586 0.000293141H32.64C32.6828 -0.000765982 32.7257 0.00110337 32.7682 0.00577598C33.2038 0.0546202 33.5745 0.328123 33.7299 0.715264C33.7818 0.837561 33.8076 0.968457 33.8057 1.10022Z" fill="#285680"/>
<path d="M33.8057 1.10022C33.8076 0.968457 33.7818 0.837624 33.7299 0.715264C33.5745 0.328123 33.2038 0.0546825 32.7682 0.00577598C32.7257 0.00104107 32.6828 -0.000765982 32.64 0.000293141H30.7283L20.4 6.72093V0.000293141H13.4058V6.72093L3.07759 0.000293141H1.16586C1.12301 -0.000765982 1.08016 0.00110337 1.03764 0.00577598C0.601996 0.0546825 0.231258 0.328123 0.0758978 0.715264C0.023935 0.837624 -0.00181531 0.968457 9.94544e-05 1.10022V2.00216L8.75454 7.69987H0.000165481V14.2995H8.74879L0.000165481 19.9972V20.8992C-0.00174928 21.0309 0.024001 21.1618 0.0759638 21.2841C0.231324 21.6713 0.601996 21.9447 1.0377 21.9936C1.08023 21.9983 1.12308 22.0001 1.16593 21.9991H3.07766L13.4058 15.2785V21.9991H20.4V15.2785L30.7282 21.9991H32.6399C32.6828 22.0001 32.7256 21.9983 32.7681 21.9936C33.2038 21.9447 33.5745 21.6713 33.7298 21.2841C33.7818 21.1618 33.8075 21.0309 33.8056 20.8992V19.9972L25.0512 14.2995H33.8056V7.69987H25.057L33.8056 2.00216V1.10022H33.8057Z" fill="#ECF0F1"/>
<path d="M33.7253 21.2844C33.5699 21.6715 33.1993 21.945 32.7636 21.9939L20.9375 14.2998H23.0008L33.7253 21.2844Z" fill="#C03A2B"/>
<path d="M12.8659 7.69897H10.8026L0.078125 0.714371C0.233485 0.32723 0.604157 0.0537894 1.03987 0.00488281L12.8659 7.69897Z" fill="#C03A2B"/>
<path d="M33.7312 0.714371L22.995 7.69897H20.9492L32.7695 0.00488281C33.2052 0.0537894 33.5758 0.32723 33.7312 0.714371Z" fill="#C03A2B"/>
<path d="M12.8601 14.2998L1.03987 21.9939C0.604223 21.945 0.233551 21.6715 0.078125 21.2844L10.8143 14.2998H12.8601Z" fill="#C03A2B"/>
<path d="M33.8055 9.89941H0V12.0993H33.8055V9.89941Z" fill="#C03A2B"/>
<path d="M18.0697 0H15.7383V21.9988H18.0697V0Z" fill="#C03A2B"/>
</svg>
