<svg width="15" height="15" viewBox="0 0 15 15" fill="none" xmlns="http://www.w3.org/2000/svg">
<path d="M14.8163 13.9316L11.1673 10.2827C12.0582 9.19592 12.5908 7.80918 12.5908 6.29388C12.5908 2.81939 9.77143 0 6.29694 0C2.81939 0 0 2.81939 0 6.29694C0 9.77449 2.81939 12.5939 6.29694 12.5939C7.80918 12.5939 9.19898 12.0612 10.2857 11.1704L13.9316 14.8163C14.1765 15.0612 14.5714 15.0612 14.8163 14.8163C15.0612 14.5714 15.0612 14.1765 14.8163 13.9316ZM1.24898 6.29694C1.24898 3.51122 3.50816 1.25204 6.29388 1.25204C9.07959 1.25204 11.3388 3.51122 11.3388 6.29694C11.3388 9.08265 9.07959 11.3418 6.29388 11.3418C3.50816 11.3418 1.24898 9.08265 1.24898 6.29694Z" fill="white"/>
</svg>
