<svg width="40" height="45" viewBox="0 0 40 45" fill="none" xmlns="http://www.w3.org/2000/svg">
<path d="M9.22972 21.7257L8.11655 21.1642C7.85601 21.0328 7.69141 20.7642 7.69141 20.4703V17.5503C7.69141 17.2564 7.85601 16.9878 8.11655 16.8564L9.22972 16.2949V21.7257Z" fill="#707487"/>
<path d="M26.9231 31.8106V26.3799H13.0781V31.8106L20.0006 38.0171L26.9231 31.8106Z" fill="#E6AF78"/>
<path d="M37.6248 34.3514L28.107 32.0926C27.9632 32.0585 27.831 32.0005 27.7073 31.9303L19.9984 36.4661L12.5901 31.7109C12.3983 31.893 12.1603 32.0284 11.8899 32.0926L2.37203 34.3515C0.982204 34.6814 0 35.9322 0 37.3723V43.4486C0 44.3056 0.688728 45.0002 1.53831 45.0002H38.4583C39.308 45.0002 39.9966 44.3055 39.9966 43.4486V37.3723C39.9968 35.9321 39.0146 34.6812 37.6248 34.3514Z" fill="#B4E1FA"/>
<path d="M13.0781 26.38V32.1098C21.7986 35.2789 26.9231 27.3475 26.9231 27.3475V26.3799H13.0781V26.38Z" fill="#D29B6E"/>
<path d="M10 8.53711L10.6703 23.4107C10.7328 24.8001 11.4083 26.0887 12.5115 26.9232L15.6918 29.3291C16.4906 29.9334 17.4622 30.2602 18.4608 30.2602H21.5375C22.5361 30.2602 23.5077 29.9335 24.3065 29.3291L27.4868 26.9232C28.59 26.0886 29.2655 24.8002 29.328 23.4107L29.9983 8.53711C29.9982 8.53711 10 8.53711 10 8.53711Z" fill="#F0C087"/>
<path d="M17.6917 11.6404C20.7684 11.6404 25.3834 10.8646 26.478 8.53711H10L10.6703 23.4107C10.7328 24.8001 11.4083 26.0886 12.5115 26.9232L15.6919 29.3291C16.4907 29.9334 17.4623 30.2602 18.4609 30.2602H19.9992C18.4609 30.2602 15.3842 27.1568 15.3842 23.2778C15.3842 21.3806 15.3842 16.2954 15.3842 13.9679C15.3842 13.1921 16.1533 11.6404 17.6917 11.6404Z" fill="#E6AF78"/>
<path d="M5.64663 39.9642L0.6625 35.4482C0.244854 35.9817 0 36.6529 0 37.3715V43.4477C0 44.3047 0.688728 44.9993 1.53831 44.9993H6.92248V42.85C6.9224 41.749 6.45857 40.6999 5.64663 39.9642Z" fill="#A0D2F0"/>
<path d="M34.3501 39.9642L39.3342 35.4482C39.7518 35.9817 39.9967 36.6529 39.9967 37.3715V43.4477C39.9967 44.3047 39.308 44.9993 38.4584 44.9993H33.0742V42.85C33.0742 41.749 33.538 40.6999 34.3501 39.9642Z" fill="#A0D2F0"/>
<path d="M21.924 45H18.0781L18.5589 38.0176H21.4433L21.924 45Z" fill="#5B5D6E"/>
<path d="M21.924 36.4658H18.0781V37.9259C18.0781 38.405 18.4631 38.7933 18.9381 38.7933H21.064C21.5389 38.7933 21.9239 38.405 21.9239 37.9259V36.4658H21.924Z" fill="#515262"/>
<path d="M12.9689 30.084L19.9995 36.4661C19.9995 36.4661 18.0305 37.4687 15.6008 39.4894C15.0996 39.9062 14.3414 39.7373 14.0726 39.1408L10.7695 31.8113L11.8145 30.2304C12.0745 29.8366 12.6203 29.7676 12.9689 30.084Z" fill="#A0D2F0"/>
<path d="M27.0305 30.084L20 36.4661C20 36.4661 21.9689 37.4687 24.3987 39.4894C24.8999 39.9062 25.658 39.7373 25.9269 39.1408L29.2299 31.8113L28.185 30.2304C27.9249 29.8366 27.3791 29.7676 27.0305 30.084Z" fill="#A0D2F0"/>
<path d="M24.6641 3.39702L25.3851 8.53686C28.6767 9.20087 29.1511 14.4112 29.2194 15.8994C29.2318 16.1695 29.3172 16.4302 29.4625 16.6574L30.7184 18.6225C30.7184 18.6225 30.2886 15.3737 32.2567 13.1917C32.2568 13.1917 32.9326 0.293688 24.6641 3.39702Z" fill="#785550"/>
<path d="M10.7331 2.00655L11.8707 2.79045C6.72698 6.62107 7.68836 13.1913 7.68836 13.1913C9.22667 14.743 9.22667 18.6221 9.22667 18.6221L10.765 17.0705C10.765 17.0705 10.1713 12.5882 13.0725 10.8639C15.7645 9.26377 18.1201 10.0881 20.5238 10.0881C26.9655 10.0881 28.7683 7.63937 28.4558 4.65733C28.2941 3.11432 25.9552 -0.0998353 19.995 0.00238146C17.5897 0.0436022 13.0726 0.778192 10.7331 2.00655Z" fill="#694B4B"/>
<path d="M10.2843 9.40971C10.2843 9.40971 9.46708 6.16092 11.8707 2.79102C6.72698 6.62164 7.68836 13.1919 7.68836 13.1919C9.22667 14.7435 9.22667 18.6227 9.22667 18.6227L10.765 17.071C10.765 17.071 10.1713 12.5888 13.0725 10.8645C15.7645 9.26434 18.1201 10.0887 20.5238 10.0887C21.5714 10.0887 22.4843 10.0179 23.2975 9.89662C18.3366 10.0643 15.4122 6.27403 10.2843 9.40971Z" fill="#5A4146"/>
<path d="M10.3839 22.5009H9.23009C8.8053 22.5009 8.46094 22.1536 8.46094 21.7251V16.2944C8.46094 15.8659 8.8053 15.5186 9.23009 15.5186H10.3839C10.5962 15.5186 10.7685 15.6922 10.7685 15.9065V22.113C10.7684 22.3274 10.5962 22.5009 10.3839 22.5009Z" fill="#5B5D6E"/>
<path d="M23.0781 26.9624V25.7986C28.2839 25.7986 29.4238 22.8584 29.4238 21.7256H30.5775C30.5775 23.1822 29.2302 26.9624 23.0781 26.9624Z" fill="#464655"/>
<path d="M23.0774 27.1561H22.3082C21.8834 27.1561 21.5391 26.8088 21.5391 26.3803C21.5391 25.9518 21.8834 25.6045 22.3082 25.6045H23.0774C23.5022 25.6045 23.8465 25.9518 23.8465 26.3803C23.8465 26.8088 23.5021 27.1561 23.0774 27.1561Z" fill="#5B5D6E"/>
<path d="M30.7656 21.7257L31.8788 21.1642C32.1393 21.0328 32.3039 20.7642 32.3039 20.4703V17.5503C32.3039 17.2564 32.1393 16.9878 31.8788 16.8564L30.7656 16.2949V21.7257Z" fill="#707487"/>
<path d="M29.6151 22.5009H30.7689C31.1937 22.5009 31.538 22.1536 31.538 21.7251V16.2944C31.538 15.8659 31.1937 15.5186 30.7689 15.5186H29.6151C29.4027 15.5186 29.2305 15.6922 29.2305 15.9065V22.113C29.2306 22.3274 29.4027 22.5009 29.6151 22.5009Z" fill="#5B5D6E"/>
<path d="M29.9971 43.4482H24.6129C24.1881 43.4482 23.8438 43.7956 23.8438 44.2241V44.9999H30.7662V44.2241C30.7662 43.7957 30.4218 43.4482 29.9971 43.4482Z" fill="#A0D2F0"/>
</svg>
