<svg width="138" height="136" viewBox="0 0 138 136" fill="none" xmlns="http://www.w3.org/2000/svg">
    <path d="M123.567 74.3937C120.91 77.2555 116.803 79.8414 112.11 78.945C111.558 80.8758 109.522 84.0478 107.486 84.3581C105.242 84.7029 104.449 83.4617 104.345 81.5998C104.173 77.9796 100.618 76.3246 96.4425 76.7039C91.9217 77.1521 89.8511 81.0826 90.7484 82.5997C91.6456 84.0823 96.2699 82.9445 99.6519 85.8752C103.31 89.0472 106.968 95.9774 102.447 96.3222C100.135 96.5291 100.273 91.4607 97.1672 89.3575C94.0268 87.1854 89.1954 86.2889 84.9162 87.806C80.6371 89.3231 76.5304 93.3226 78.67 99.184C80.7751 105.045 85.6755 101.149 86.2966 103.839C86.9178 106.493 84.5366 108.976 82.5006 109.321C79.6708 109.872 81.2237 111.458 80.6025 113.941C79.9814 116.423 75.081 125.491 73.6661 122.733C73.6661 122.733 73.8387 116.871 73.6661 109.148C73.4936 101.425 72.4238 92.7019 76.8755 88.1852C80.9477 84.0478 84.5367 83.634 85.3994 82.6686C86.2966 81.7032 88.0911 72.1871 97.8573 72.1871H122.601C122.601 72.1871 126.224 71.5665 123.567 74.3937ZM69.3869 81.5653C61.7603 81.5653 55.5831 75.3936 55.5831 67.7738C55.5831 60.1885 61.7603 54.0169 69.3869 54.0169C76.979 54.0169 83.1563 60.1885 83.1563 67.7738C83.1563 75.3936 76.979 81.5653 69.3869 81.5653ZM65.0732 109.148C64.9007 116.871 65.0732 122.733 65.0732 122.733C63.6583 125.491 58.758 116.423 58.1368 113.941C57.5156 111.458 59.0686 109.872 56.2388 109.321C54.2372 108.976 51.8216 106.493 52.4427 103.839C53.0639 101.149 57.9643 105.045 60.1038 99.184C62.2434 93.3226 58.1023 89.3231 53.8231 87.806C49.5784 86.2889 44.7126 87.1854 41.6067 89.3575C38.4663 91.4607 38.6044 96.5291 36.2922 96.3222C31.7715 95.9774 35.4295 89.0472 39.122 85.8752C42.4695 82.9445 47.0937 84.0823 47.991 82.5997C48.8882 81.0826 46.8522 77.1521 42.2969 76.7039C38.1558 76.3246 34.5668 77.9796 34.3942 81.5998C34.2907 83.4617 33.497 84.7029 31.2883 84.3581C29.2178 84.0478 27.1817 80.8758 26.6641 78.945C21.9363 79.8414 17.8641 77.2555 15.1724 74.3937C12.5151 71.5665 16.1732 72.1871 16.1732 72.1871H40.882C50.6482 72.1871 52.4427 81.7032 53.34 82.6686C54.2372 83.634 57.7917 84.0478 61.8639 88.1852C66.3156 92.7019 65.2458 101.425 65.0732 109.148ZM15.1724 61.1539C17.8641 58.3267 21.9363 55.7408 26.6641 56.6372C27.1817 54.6719 29.2178 51.5344 31.2883 51.2241C33.497 50.8448 34.2907 52.0861 34.3942 53.9479C34.5668 57.6027 38.1558 59.2576 42.2969 58.8439C46.8522 58.3957 48.8882 54.4996 47.991 52.9825C47.0937 51.4655 42.4695 52.6377 39.122 49.707C35.4295 46.535 31.7715 39.5703 36.2922 39.2255C38.6044 39.0531 38.4663 44.1215 41.6067 46.2247C44.7126 48.3623 49.5784 49.2588 53.8231 47.7762C58.1023 46.2591 62.2434 42.2252 60.1038 36.3638C57.9643 30.5024 53.0639 34.4329 52.4427 31.7436C51.8216 29.0887 54.2372 26.6063 56.2388 26.227C59.0686 25.7098 57.5156 24.1238 58.1368 21.6069C58.758 19.1244 63.6583 10.0565 65.0732 12.8148C65.0732 12.8148 64.9007 18.6762 65.0732 26.4339C65.2458 34.1571 66.3156 42.8458 61.8639 47.397C57.7917 51.5344 54.2372 51.9137 53.34 52.8791C52.4427 53.8789 50.6482 63.3951 40.882 63.3951H16.1732C16.1732 63.3951 12.5151 64.0157 15.1724 61.1539ZM73.6661 26.4339C73.8387 18.6762 73.6661 12.8148 73.6661 12.8148C75.081 10.0565 79.9814 19.1244 80.6025 21.6069C81.2237 24.1238 79.6708 25.7098 82.5006 26.227C84.5366 26.6063 86.9178 29.0887 86.2966 31.7436C85.6755 34.4329 80.7751 30.5024 78.67 36.3638C76.5304 42.2252 80.6371 46.2591 84.9162 47.7762C89.1954 49.2588 94.0268 48.3623 97.1672 46.2247C100.273 44.1215 100.135 39.0531 102.447 39.2255C106.968 39.5703 103.31 46.535 99.6519 49.707C96.2699 52.6377 91.6456 51.4655 90.7484 52.9825C89.8511 54.4996 91.9217 58.3957 96.4425 58.8439C100.618 59.2576 104.173 57.6027 104.345 53.9479C104.449 52.0861 105.242 50.8448 107.486 51.2241C109.522 51.5344 111.558 54.6719 112.11 56.6372C116.803 55.7408 120.91 58.3267 123.567 61.1539C126.224 64.0157 122.601 63.3951 122.601 63.3951H97.8573C88.0911 63.3951 86.2966 53.8789 85.3994 52.8791C84.5367 51.9137 80.9477 51.5344 76.8755 47.397C72.4238 42.8458 73.4936 34.1571 73.6661 26.4339ZM137.923 67.7049C135.611 65.0156 108.762 38.2256 102.896 35.5363C98.2714 33.4331 93.3366 38.5704 91.5076 40.8805C90.8174 41.7424 87.7805 46.8108 85.8135 44.949C82.6041 41.9493 92.4048 33.571 95.9593 32.4332C99.3067 31.3299 99.3412 29.5025 98.0644 28.4337C96.822 27.3648 70.8709 0.161133 69.663 0.161133C69.6285 0.161133 69.525 0.230099 69.3869 0.299056C69.2489 0.230099 69.1108 0.161133 69.0763 0.161133C67.8685 0.161133 41.9173 27.3648 40.675 28.4337C39.4326 29.5025 40.3644 31.5023 42.4005 31.8816C45.1957 32.4677 56.7219 41.8804 52.9259 44.949C50.9933 46.5005 49.2679 43.5698 48.0945 41.7769C46.9212 39.9151 41.9173 33.2262 35.8436 35.5363C29.8045 37.8463 3.12855 65.0156 0.816406 67.7049C0.816406 67.7394 0.816406 67.7394 0.816406 67.7738C0.816406 67.8083 0.816406 67.8428 0.816406 67.8773C3.12855 70.5322 29.7699 97.8048 35.8436 100.046C40.744 101.804 46.5761 96.4601 47.9565 94.5293C49.7855 91.9779 50.5792 89.0472 52.9259 90.6332C57.6192 93.8053 44.402 103.425 41.5377 103.597C38.7079 103.77 39.4326 106.08 40.675 107.148C41.9173 108.217 67.8685 135.387 69.0763 135.387C69.1108 135.387 69.2489 135.352 69.3869 135.249C69.525 135.352 69.6285 135.387 69.663 135.387C70.8709 135.387 96.822 108.217 98.0644 107.148C99.3412 106.08 99.9624 104.252 97.2017 103.597C94.2683 102.908 81.7068 94.0121 85.8135 90.6332C88.4017 88.4955 90.6103 93.7708 91.335 94.6328C93.0605 96.7015 98.3405 102.011 102.896 100.046C108.831 97.46 135.611 70.5322 137.923 67.8773C137.923 67.8428 137.923 67.8083 137.958 67.7738C137.923 67.7394 137.923 67.7394 137.923 67.7049Z" fill="#454545" fill-opacity="0.03"/>
</svg>
