<svg width="16" height="9" viewBox="0 0 16 9" fill="none" xmlns="http://www.w3.org/2000/svg">
<path d="M15.8805 4.1665C15.7377 3.99657 12.3026 0 8.00001 0C3.69745 0 0.262328 3.99657 0.119484 4.1665C-0.0398281 4.35643 -0.0398281 4.64357 0.119484 4.8335C0.262328 5.00343 3.69751 9 8.00001 9C12.3025 9 15.7377 5.00343 15.8805 4.8335C16.0398 4.64357 16.0398 4.35643 15.8805 4.1665ZM8.00001 8C6.19092 8 4.71876 6.4297 4.71876 4.5C4.71876 2.5703 6.19092 1 8.00001 1C9.8091 1 11.2813 2.5703 11.2813 4.5C11.2813 6.4297 9.8091 8 8.00001 8Z" fill="#878DA1"/>
<path d="M8.46875 3.49988C8.46875 2.99688 8.70284 2.55438 9.05897 2.28221C8.7394 2.10771 8.38297 1.99988 8 1.99988C6.70772 1.99988 5.65625 3.12144 5.65625 4.49988C5.65625 5.87831 6.70772 6.99988 8 6.99988C9.157 6.99988 10.1146 6.09874 10.3038 4.92128C9.35987 5.24544 8.46875 4.48394 8.46875 3.49988Z" fill="#878DA1"/>
</svg>
