<svg width="136" height="78" viewBox="0 0 136 78" fill="none" xmlns="http://www.w3.org/2000/svg">
<path d="M83.8056 21.8449C83.0222 22.6732 81.8376 23.4437 80.462 23.174C80.3091 23.7519 79.7168 24.6766 79.1054 24.7729C78.4558 24.8692 78.2265 24.5032 78.2074 23.9638C78.1501 22.8851 77.1184 22.4035 75.8956 22.5191C74.5772 22.6539 73.9849 23.8097 74.2333 24.2528C74.5008 24.6959 75.8383 24.3491 76.8318 25.216C77.9017 26.1406 78.9717 28.1826 77.6534 28.2981C76.9655 28.3367 77.0037 26.8726 76.1057 26.2369C75.1886 25.6012 73.7748 25.3316 72.5329 25.7939C71.291 26.2369 70.0873 27.412 70.7178 29.1457C71.3292 30.8602 72.7621 29.7044 72.9341 30.4942C73.1252 31.284 72.4182 32.016 71.8259 32.1123C71.0044 32.2664 71.4629 32.748 71.291 33.48C71.0999 34.2121 69.6669 36.8704 69.2657 36.0614C69.2657 36.0614 69.3039 34.3276 69.2657 32.0545C69.2084 29.8007 68.9027 27.2194 70.1828 25.8902C71.3865 24.6766 72.4182 24.561 72.6857 24.2721C72.9341 23.9831 73.45 21.1899 76.3159 21.1899H83.519C83.519 21.1899 84.5889 20.9973 83.8056 21.8449ZM68.0047 23.9446C65.7884 23.9446 63.9924 22.1338 63.9924 19.8992C63.9924 17.6647 65.7884 15.8346 68.0047 15.8346C70.221 15.8346 72.017 17.6647 72.017 19.8992C72.017 22.1338 70.221 23.9446 68.0047 23.9446ZM66.7437 32.0545C66.7055 34.3276 66.7437 36.0614 66.7437 36.0614C66.3424 36.8704 64.9095 34.2121 64.7375 33.48C64.5465 32.748 65.005 32.2664 64.1834 32.1123C63.5911 32.016 62.8842 31.284 63.0753 30.4942C63.2472 29.7044 64.6802 30.8602 65.2916 29.1457C65.9221 27.412 64.7184 26.2369 63.4765 25.7939C62.2346 25.3316 60.8207 25.6012 59.9036 26.2369C59.0056 26.8726 59.0438 28.3367 58.356 28.2981C57.0377 28.1826 58.1076 26.1406 59.1776 25.216C60.1711 24.3491 61.5086 24.6959 61.776 24.2528C62.0244 23.8097 61.4321 22.6539 60.1138 22.5191C58.891 22.4035 57.8593 22.8851 57.8019 23.9638C57.7828 24.5032 57.5536 24.8692 56.9039 24.7729C56.2925 24.6766 55.7003 23.7519 55.5474 23.174C54.1717 23.4437 52.9872 22.6732 52.2038 21.8449C51.4396 20.9973 52.4904 21.1899 52.4904 21.1899H59.6935C62.5594 21.1899 63.0753 23.9831 63.3237 24.2721C63.5911 24.561 64.6229 24.6766 65.8266 25.8902C67.1067 27.2194 66.801 29.8007 66.7437 32.0545ZM52.2038 17.9536C52.9872 17.106 54.1717 16.3547 55.5474 16.6052C55.7003 16.0465 56.2925 15.1219 56.9039 15.0256C57.5536 14.91 57.7828 15.276 57.8019 15.8346C57.8593 16.8941 58.891 17.395 60.1138 17.2601C61.4321 17.1446 62.0244 15.9887 61.776 15.5457C61.5086 15.1026 60.1711 15.4301 59.1776 14.5825C58.1076 13.6386 57.0377 11.5967 58.356 11.5003C59.0438 11.4425 59.0056 12.9258 59.9036 13.5615C60.8207 14.178 62.2346 14.4477 63.4765 14.0046C64.7184 13.5615 65.9221 12.3865 65.2916 10.6527C64.6802 8.91902 63.2472 10.0748 63.0753 9.28503C62.8842 8.51449 63.5911 7.78247 64.1834 7.66689C65.005 7.51278 64.5465 7.05046 64.7375 6.31844C64.9095 5.58643 66.3424 2.9088 66.7437 3.71786C66.7437 3.71786 66.7055 5.45158 66.7437 7.72468C66.801 9.99778 67.1067 12.5598 65.8266 13.889C64.6229 15.1219 63.5911 15.2182 63.3237 15.5072C63.0753 15.7961 62.5594 18.6086 59.6935 18.6086H52.4904C52.4904 18.6086 51.4396 18.782 52.2038 17.9536ZM69.2657 7.72468C69.3039 5.45158 69.2657 3.71786 69.2657 3.71786C69.6669 2.9088 71.0999 5.58643 71.291 6.31844C71.4629 7.05046 71.0044 7.51278 71.8259 7.66689C72.4182 7.78247 73.1252 8.51449 72.9341 9.28503C72.7621 10.0748 71.3292 8.91902 70.7178 10.6527C70.0873 12.3865 71.291 13.5615 72.5329 14.0046C73.7748 14.4477 75.1886 14.178 76.1057 13.5615C77.0037 12.9258 76.9655 11.4425 77.6534 11.5003C78.9717 11.5967 77.9017 13.6386 76.8318 14.5825C75.8383 15.4301 74.5008 15.1026 74.2333 15.5457C73.9849 15.9887 74.5772 17.1446 75.8956 17.2601C77.1184 17.395 78.1501 16.8941 78.2074 15.8346C78.2265 15.276 78.4558 14.91 79.1054 15.0256C79.7168 15.1219 80.3091 16.0465 80.462 16.6052C81.8376 16.3547 83.0222 17.106 83.8056 17.9536C84.5889 18.782 83.519 18.6086 83.519 18.6086H76.3159C73.45 18.6086 72.9341 15.7961 72.6857 15.5072C72.4182 15.2182 71.3865 15.1219 70.1828 13.889C68.9027 12.5598 69.2084 9.99778 69.2657 7.72468ZM87.9898 19.8607C87.3211 19.0902 79.4876 11.1921 77.768 10.4023C76.4305 9.78588 74.9976 11.2884 74.4626 11.9819C74.2524 12.2324 73.3735 13.7156 72.8004 13.1763C71.8642 12.2901 74.711 9.82441 75.7618 9.49693C76.7362 9.16945 76.7362 8.63007 76.3732 8.32185C76.0102 7.99437 68.4441 0 68.1002 0C68.0811 0 68.0429 0.0192635 68.0047 0.0385271C67.9665 0.0192635 67.9283 0 67.9092 0C67.5652 0 59.9992 7.99437 59.6361 8.32185C59.2731 8.63007 59.5406 9.22724 60.1329 9.34282C60.9545 9.49693 64.3172 12.2709 63.209 13.1763C62.6549 13.6386 62.1391 12.7717 61.8143 12.2516C61.4512 11.693 59.9992 9.72809 58.2414 10.4023C56.4645 11.0958 48.6883 19.0902 48.0195 19.8607C48.0195 19.88 48.0195 19.88 48.0195 19.8992V19.9185C48.6883 20.7083 56.4645 28.7219 58.2414 29.3769C59.6552 29.9163 61.3557 28.3367 61.7569 27.7588C62.2919 27.0075 62.5403 26.1406 63.209 26.6222C64.5847 27.5469 60.7252 30.3786 59.9036 30.4364C59.063 30.4749 59.2731 31.1684 59.6361 31.4766C59.9992 31.7848 67.5652 39.7792 67.9092 39.7792C67.9283 39.7792 67.9665 39.76 68.0047 39.7407C68.0429 39.76 68.0811 39.7792 68.1002 39.7792C68.4441 39.7792 76.0102 31.7848 76.3732 31.4766C76.7362 31.1684 76.9273 30.629 76.1057 30.4364C75.2651 30.2245 71.5967 27.6047 72.8004 26.6222C73.5455 25.9865 74.1951 27.5469 74.4053 27.7973C74.9212 28.3945 76.4497 29.9548 77.768 29.3769C79.5067 28.6256 87.3211 20.7083 87.9898 19.9185V19.8992C87.9898 19.88 87.9898 19.88 87.9898 19.8607Z" fill="#03A0E3"/>
<path d="M10.3174 51.0098V51.1446C9.97347 51.1831 9.66777 51.2217 9.40028 51.2795C9.1328 51.3372 8.86531 51.4914 8.57871 51.7418C8.38765 51.9344 8.25391 52.0693 8.17748 52.1271C8.12016 52.1848 8.04374 52.2619 7.94821 52.3389L3.72572 56.5577L8.78888 62.3175C9.17101 62.7605 9.51492 63.0495 9.78241 63.1651C10.069 63.2806 10.432 63.3577 10.8524 63.3962V63.5311H8.17748L2.61756 57.2126V62.0285C2.61756 62.9146 3.057 63.377 3.955 63.3962V63.5311H0V63.3962C0.248381 63.3962 0.477657 63.3384 0.668719 63.2614C0.859782 63.1843 1.01263 63.0495 1.14638 62.8376C1.26101 62.6449 1.33744 62.3753 1.33744 62.0285V52.5123C1.33744 51.9922 1.20369 51.6262 0.936207 51.4528C0.668719 51.2602 0.363019 51.1639 0 51.1446V51.0098H3.955V51.1446C3.057 51.1831 2.61756 51.6262 2.61756 52.5123V57.1356L7.37502 52.3389C7.37502 52.3389 7.39413 52.3389 7.41323 52.2812C7.68072 52.0307 7.81446 51.8381 7.81446 51.6647C7.81446 51.4528 7.73804 51.3372 7.58519 51.2795C7.43234 51.2217 7.20306 51.1831 6.87826 51.1446V51.0098H10.3174Z" fill="#03A0E3"/>
<path d="M14.4199 57.983H18.3749L16.3497 52.0305H16.3115L14.4199 57.983ZM17.2477 50.8555L20.9543 61.5853C21.1645 62.1439 21.3364 62.5484 21.5275 62.7989C21.6994 63.0493 21.8523 63.2034 22.0242 63.2805C22.1771 63.3382 22.3873 63.3768 22.6356 63.396V63.5309H18.566V63.396C18.9863 63.396 19.3111 63.3575 19.5404 63.2805C19.7506 63.2034 19.8652 62.9915 19.8652 62.6448C19.8652 62.4521 19.827 62.1824 19.7124 61.8742C19.6933 61.8164 19.6742 61.7779 19.6742 61.7586L18.566 58.4453H14.2671L13.2736 61.5082C13.1398 61.932 13.0825 62.2787 13.0825 62.5292C13.0825 62.8759 13.1589 63.1071 13.35 63.2227C13.5219 63.3382 13.7703 63.396 14.0951 63.396V63.5309H11.1719V63.396C11.5731 63.3575 11.917 63.2034 12.1654 62.9337C12.4138 62.6448 12.624 62.221 12.815 61.6431L16.3306 50.8555H17.2477Z" fill="#03A0E3"/>
<path d="M31.6842 51.4914H25.7421C25.2454 51.4914 24.8441 51.5491 24.5384 51.6455C24.2327 51.761 23.9844 51.9537 23.7933 52.2041C23.6022 52.4738 23.4685 52.8398 23.3921 53.3021H23.2583V51.0098H33.4229V51.2602L24.825 63.0687H30.7862C31.4549 63.0687 31.9708 63.011 32.3529 62.8568C32.7159 62.722 32.9834 62.5486 33.1554 62.3367C33.3082 62.1248 33.4802 61.8166 33.6521 61.4506H33.7859L33.2127 63.5503H23.1055V63.2806L31.6842 51.4914Z" fill="#03A0E3"/>
<path d="M37.4746 57.983H41.4296L39.4044 52.0305H39.3853L37.4746 57.983ZM40.3024 50.8555L44.0281 61.5853C44.2191 62.1439 44.4102 62.5484 44.5822 62.7989C44.7541 63.0493 44.9261 63.2034 45.0789 63.2805C45.2509 63.3382 45.4419 63.3768 45.6903 63.396V63.5309H41.6398V63.396C42.0601 63.396 42.3849 63.3575 42.5951 63.2805C42.8244 63.2034 42.939 62.9915 42.939 62.6448C42.939 62.4521 42.8817 62.1824 42.7862 61.8742C42.7671 61.8164 42.748 61.7779 42.748 61.7586L41.6398 58.4453H37.3409L36.3474 61.5082C36.2136 61.932 36.1563 62.2787 36.1563 62.5292C36.1563 62.8759 36.2327 63.1071 36.4047 63.2227C36.5766 63.3382 36.825 63.396 37.1498 63.396V63.5309H34.2266V63.396C34.6469 63.3575 34.9717 63.2034 35.2392 62.9337C35.4876 62.6448 35.6977 62.221 35.8888 61.6431L39.3853 50.8555H40.3024Z" fill="#03A0E3"/>
<path d="M56.7866 51.0098V51.1446C56.4426 51.1831 56.1369 51.2217 55.8695 51.2795C55.602 51.3372 55.3345 51.4914 55.067 51.7418C54.8759 51.9344 54.7231 52.0693 54.6658 52.1271C54.5893 52.1848 54.5129 52.2619 54.4365 52.3389L50.1949 56.5577L55.2581 62.3175C55.6402 62.7605 55.9841 63.0495 56.2707 63.1651C56.5382 63.2806 56.9012 63.3577 57.3406 63.3962V63.5311H54.6467L49.0867 57.2126V62.0285C49.0867 62.9146 49.5262 63.377 50.4242 63.3962V63.5311H46.4883V63.3962C46.7367 63.3962 46.9468 63.3384 47.1379 63.2614C47.329 63.1843 47.4818 63.0495 47.6156 62.8376C47.7493 62.6449 47.8066 62.3753 47.8066 62.0285V52.5123C47.8066 51.9922 47.6729 51.6262 47.4054 51.4528C47.157 51.2602 46.8322 51.1639 46.4883 51.1446V51.0098H50.4242V51.1446C49.5262 51.1831 49.0867 51.6262 49.0867 52.5123V57.1356L53.8633 52.3389C53.8633 52.3389 53.8633 52.3389 53.8824 52.2812C54.1499 52.0307 54.2836 51.8381 54.2836 51.6647C54.2836 51.4528 54.2072 51.3372 54.0544 51.2795C53.9015 51.2217 53.6722 51.1831 53.3474 51.1446V51.0098H56.7866Z" fill="#03A0E3"/>
<path d="M67.7602 56.7503V52.5508C67.7602 52.1463 67.6456 51.7996 67.4354 51.5491C67.2062 51.2795 66.8623 51.1446 66.4037 51.1446V51.0098H70.3778V51.1446C69.9001 51.1446 69.5753 51.2795 69.3461 51.5491C69.1359 51.7996 69.0404 52.1271 69.0404 52.5508V62.0285C69.0404 62.9532 69.4798 63.3962 70.3778 63.3962V63.5503H66.4037V63.3962C66.8431 63.3962 67.168 63.2806 67.3972 63.0687C67.6456 62.8376 67.7602 62.4908 67.7602 62.0478V57.1356H60.6336V62.0285C60.6336 62.4716 60.7674 62.7991 60.9966 63.0495C61.245 63.2806 61.5698 63.3962 61.9902 63.3962V63.5503H58.0352V63.3962C58.4555 63.3962 58.7803 63.2806 59.0096 63.0495C59.2389 62.7991 59.3535 62.4716 59.3535 62.0285V52.5508C59.3535 51.6262 58.914 51.1446 58.0352 51.1446V51.0098H61.9902V51.1446C61.5125 51.1446 61.1877 51.2795 60.9584 51.5491C60.7482 51.7996 60.6336 52.1271 60.6336 52.5508V56.7503H67.7602Z" fill="#03A0E3"/>
<path d="M81.2792 51.0098V51.1446C80.8971 51.1446 80.5914 51.2602 80.3239 51.4721C80.0755 51.684 79.9418 52.0307 79.9418 52.5123V62.0285C79.9418 62.5101 80.0755 62.8568 80.3621 63.0687C80.6296 63.2999 80.9353 63.3962 81.2792 63.3962V63.5311H77.3242V63.3962C77.6872 63.3962 77.9929 63.2999 78.2604 63.088C78.5279 62.8761 78.6617 62.5294 78.6617 62.0285V52.5123C78.6617 51.9922 78.5279 51.6262 78.2604 51.4528C77.9929 51.2602 77.6872 51.1446 77.3242 51.1446V51.0098H81.2792Z" fill="#03A0E3"/>
<path d="M95.4 51.0098V51.1446C95.0752 51.2024 94.8268 51.2602 94.6549 51.3372C94.4638 51.4143 94.3301 51.5877 94.2346 51.8188C94.1199 52.0693 94.0817 52.416 94.0817 52.8591V63.8585H93.9862L84.4521 53.1095V60.8342C84.4521 61.4699 84.4712 61.9515 84.5286 62.2597C84.5668 62.5679 84.6432 62.7991 84.7387 62.9339C84.9489 63.2228 85.3119 63.377 85.8278 63.3962V63.5311H82.7135V63.3962C83.0574 63.3962 83.344 63.3192 83.535 63.1843C83.7261 63.0495 83.8598 62.7991 83.9363 62.4523C84.0318 62.0863 84.07 61.5662 84.07 60.8534V52.6664L83.6497 52.2041C83.2867 51.7803 83.0001 51.5106 82.7708 51.4143C82.5606 51.2987 82.274 51.2024 81.9492 51.1446V51.0098H84.2993L93.6996 61.624V53.5333C93.6996 52.9361 93.6805 52.4738 93.6231 52.1656C93.5658 51.8766 93.4512 51.6262 93.241 51.4528C93.0309 51.2795 92.706 51.1639 92.2857 51.1446V51.0098H95.4Z" fill="#03A0E3"/>
<path d="M107.638 51.0098V51.1446C107.333 51.2024 107.065 51.2987 106.855 51.4721C106.645 51.6455 106.473 51.8766 106.32 52.1656C106.186 52.4353 106.014 52.8205 105.823 53.2829C105.804 53.3021 105.766 53.3792 105.747 53.4755L102.155 63.8778H102.04L97.7985 52.6279C97.7985 52.6086 97.7794 52.5701 97.7603 52.5316C97.6075 52.05 97.3782 51.7033 97.1107 51.4721C96.8432 51.2602 96.5184 51.1446 96.1172 51.1446V51.0098H100.206V51.1446C99.862 51.1831 99.5754 51.2602 99.3653 51.3565C99.1742 51.4528 99.0596 51.7033 99.0596 52.0885C99.0596 52.1848 99.0978 52.3967 99.1933 52.7242C99.2124 52.7435 99.2124 52.782 99.2315 52.8013C99.2315 52.8398 99.2315 52.8591 99.2506 52.8783L102.518 61.6818H102.537L105.346 53.4755C105.537 52.9169 105.632 52.4931 105.632 52.2234C105.632 51.761 105.556 51.4914 105.365 51.3758C105.174 51.2409 104.887 51.1831 104.524 51.1446V51.0098H107.638Z" fill="#03A0E3"/>
<path d="M108.457 51.1446V51.0098H115.87V52.9746H115.756C115.756 51.9344 115.049 51.395 113.654 51.395H111.075V57.097H113.348C113.788 57.097 114.208 57.02 114.552 56.8659C114.915 56.731 115.106 56.3843 115.163 55.8642H115.297V58.6959H115.163C115.106 58.3684 115.01 58.1373 114.877 57.9639C114.724 57.7905 114.59 57.675 114.456 57.6172C114.323 57.5594 114.189 57.5208 114.093 57.5208C113.883 57.5016 113.673 57.4823 113.463 57.4823H111.075V61.9322C111.075 62.2597 111.132 62.5486 111.266 62.7991C111.38 63.0302 111.686 63.1651 112.145 63.1651H113.979C114.437 63.1651 114.8 63.088 115.087 62.9532C115.373 62.8376 115.603 62.6449 115.756 62.4138C115.928 62.1826 116.061 61.9129 116.176 61.5854H116.291L115.87 63.5503H108.457V63.3962H108.629C108.896 63.3962 109.145 63.2999 109.412 63.088C109.661 62.8568 109.794 62.5101 109.794 62.0285V52.5894C109.794 52.2041 109.699 51.8574 109.527 51.5877C109.355 51.2987 109.049 51.1446 108.629 51.1446H108.457Z" fill="#03A0E3"/>
<path d="M123.656 53.4179H123.523C123.446 52.8014 123.198 52.2813 122.739 51.819C122.3 51.3567 121.707 51.1448 120.981 51.1448C120.504 51.1448 120.064 51.2603 119.701 51.4722C119.319 51.7034 119.033 52.0116 118.842 52.3969C118.631 52.8014 118.536 53.2445 118.536 53.7453C118.536 54.1306 118.593 54.4966 118.708 54.7856C118.842 55.0938 119.013 55.3635 119.243 55.5946C119.491 55.8258 119.778 56.0377 120.083 56.2496C120.408 56.4422 120.848 56.6927 121.383 57.0009C122.3 57.521 123.007 58.0219 123.523 58.5227C124.019 59.0236 124.268 59.6978 124.268 60.5839C124.268 61.104 124.134 61.6241 123.866 62.125C123.599 62.6258 123.179 63.0304 122.625 63.3386C122.07 63.6661 121.402 63.8202 120.58 63.8202C120.064 63.8202 119.606 63.7624 119.224 63.6468C118.822 63.5505 118.421 63.3964 118.02 63.1845C117.848 63.146 117.733 63.1074 117.676 63.1074C117.561 63.1074 117.485 63.146 117.447 63.2423C117.409 63.3193 117.351 63.512 117.294 63.7817H117.16V60.6417H117.294C117.504 61.5663 117.886 62.2598 118.478 62.7414C119.052 63.2037 119.778 63.4349 120.618 63.4349C121.249 63.4349 121.746 63.3193 122.128 63.0882C122.51 62.8377 122.758 62.5488 122.911 62.2213C123.064 61.8746 123.14 61.5278 123.14 61.2003C123.14 60.4876 122.911 59.9097 122.491 59.4666C122.07 59.0236 121.421 58.5612 120.561 58.0989C119.969 57.7714 119.529 57.521 119.243 57.3476C118.956 57.155 118.65 56.9238 118.364 56.6349C118.058 56.3459 117.829 55.9992 117.657 55.6139C117.485 55.2094 117.389 54.7663 117.389 54.2462C117.389 53.6683 117.542 53.0904 117.867 52.551C118.173 52.0116 118.612 51.5878 119.185 51.2603C119.74 50.9329 120.389 50.7788 121.115 50.7788C121.65 50.7788 122.223 50.8558 122.797 51.0485C122.873 51.087 123.007 51.1255 123.16 51.1255C123.331 51.1255 123.465 50.9907 123.523 50.7402H123.656V53.4179Z" fill="#03A0E3"/>
<path d="M135.999 53.4584H135.865C135.808 52.6301 135.559 52.11 135.158 51.8595C134.738 51.6284 134.241 51.4935 133.629 51.4935H131.165V62.0307C131.165 62.9168 131.604 63.3791 132.502 63.3984V63.5332H128.547V63.3984C128.929 63.3984 129.235 63.2828 129.503 63.0709C129.751 62.8783 129.885 62.5315 129.885 62.0307V51.4935H127.401C126.809 51.4935 126.293 51.6284 125.891 51.8595C125.49 52.11 125.242 52.6301 125.185 53.4584H125.051V50.3955H125.185C125.261 50.5304 125.337 50.6459 125.414 50.7037C125.49 50.7808 125.567 50.8386 125.681 50.8771C125.777 50.9349 125.911 50.9542 126.044 50.9734C126.197 51.0119 126.369 51.0119 126.56 51.0119H134.604C135.139 51.0119 135.559 50.8 135.865 50.3955H135.999V53.4584Z" fill="#03A0E3"/>
<path d="M25.3203 77.8068H25.7789V74.1082L29.2944 77.9995V73.1451H28.8359V76.8629L25.3203 72.9717V77.8068ZM31.2624 77.8068H31.7209L32.3705 76.285H34.3003L34.9499 77.8068H35.4084L33.3258 73.0102L31.2624 77.8068ZM32.5234 75.919L33.3258 74.0119L34.1474 75.919H32.5234ZM38.1024 77.8068H38.561V73.5303H39.7838V73.1451H36.8796V73.5303H38.1024V77.8068ZM41.7517 77.8068H42.2103V73.1451H41.7517V77.8068ZM46.9868 77.9417C48.3625 77.9417 49.4706 76.9592 49.4706 75.4759C49.4706 74.0119 48.3625 73.0102 46.9868 73.0102C45.6112 73.0102 44.4839 74.0119 44.4839 75.4759C44.4839 76.9592 45.6112 77.9417 46.9868 77.9417ZM46.9868 77.5757C45.8404 77.5757 44.9616 76.7088 44.9616 75.4759C44.9616 74.2623 45.8404 73.3955 46.9868 73.3955C48.1141 73.3955 48.993 74.2623 48.993 75.4759C48.993 76.7088 48.1141 77.5757 46.9868 77.5757ZM51.7443 77.8068H52.2028V74.1082L55.6993 77.9995V73.1451H55.2598V76.8629L51.7443 72.9717V77.8068ZM57.6672 77.8068H58.1449L58.7754 76.285H60.7242L61.3547 77.8068H61.8133L59.7498 73.0102L57.6672 77.8068ZM58.9282 75.919L59.7498 74.0119L60.5523 75.919H58.9282ZM63.8003 77.8068H65.7301V77.4408H64.2398V73.1451H63.8003V77.8068ZM73.1051 76.8822C72.6656 77.306 72.0542 77.5757 71.4237 77.5757C70.2965 77.5757 69.5131 76.5932 69.5131 75.4759C69.5131 74.2623 70.4111 73.3955 71.4428 73.3955C71.9014 73.3955 72.5128 73.5111 73.1051 74.1082V73.5688C72.4746 73.1065 71.9014 73.0102 71.4237 73.0102C70.1054 73.0102 69.0355 74.0312 69.0355 75.4759C69.0355 76.8629 70.0099 77.9417 71.4237 77.9417C71.9396 77.9417 72.5701 77.8068 73.1051 77.4023V76.8822ZM77.4804 77.9417C78.8561 77.9417 79.9642 76.9592 79.9642 75.4759C79.9642 74.0119 78.8561 73.0102 77.4804 73.0102C76.1048 73.0102 74.9775 74.0119 74.9775 75.4759C74.9775 76.9592 76.1048 77.9417 77.4804 77.9417ZM77.4804 77.5757C76.3532 77.5757 75.4552 76.7088 75.4552 75.4759C75.4552 74.2623 76.3532 73.3955 77.4804 73.3955C78.6077 73.3955 79.5057 74.2623 79.5057 75.4759C79.5057 76.7088 78.6077 77.5757 77.4804 77.5757ZM81.9322 77.8068H82.3525L82.792 74.3587L84.4924 77.9995L86.1929 74.3587L86.6323 77.8068H87.0527L86.4222 72.9717L84.4924 77.1133L82.5627 72.9717L81.9322 77.8068ZM89.2308 77.8068H89.6702V75.63H90.5109C90.9886 75.63 91.8866 75.5145 91.8866 74.3779C91.8866 73.2606 91.0077 73.1451 90.5109 73.1451H89.2308V77.8068ZM89.6702 73.5303H90.4918C90.6638 73.5303 91.428 73.5111 91.428 74.3779C91.428 75.1677 90.8166 75.2448 90.4918 75.2448H89.6702V73.5303ZM93.587 77.8068H94.0456L94.6952 76.285H96.644L97.2745 77.8068H97.7331L95.6696 73.0102L93.587 77.8068ZM94.848 75.919L95.6696 74.0119L96.4721 75.919H94.848ZM99.7201 77.8068H100.16V74.1082L103.675 77.9995V73.1451H103.217V76.8629L99.7201 72.9717V77.8068ZM107.076 77.8068H107.535V75.6686L108.987 73.1451H108.49L107.305 75.264L106.121 73.1451H105.605L107.076 75.6686V77.8068Z" fill="#03A0E3"/>
</svg>
