<svg width="136" height="78" viewBox="0 0 136 78" fill="none" xmlns="http://www.w3.org/2000/svg">
<path d="M83.8056 21.8449C83.0222 22.6732 81.8376 23.4437 80.462 23.174C80.3091 23.7519 79.7168 24.6766 79.1054 24.7729C78.4558 24.8692 78.2265 24.5032 78.2074 23.9638C78.1501 22.8851 77.1184 22.4035 75.8956 22.5191C74.5772 22.6539 73.9849 23.8097 74.2333 24.2528C74.5008 24.6959 75.8383 24.3491 76.8318 25.216C77.9017 26.1406 78.9717 28.1826 77.6534 28.2981C76.9655 28.3367 77.0037 26.8726 76.1057 26.2369C75.1886 25.6012 73.7748 25.3316 72.5329 25.7939C71.291 26.2369 70.0873 27.412 70.7178 29.1457C71.3292 30.8602 72.7621 29.7044 72.9341 30.4942C73.1252 31.284 72.4182 32.016 71.8259 32.1123C71.0044 32.2664 71.4629 32.748 71.291 33.48C71.0999 34.2121 69.6669 36.8704 69.2657 36.0614C69.2657 36.0614 69.3039 34.3276 69.2657 32.0545C69.2084 29.8007 68.9027 27.2194 70.1828 25.8902C71.3865 24.6766 72.4182 24.561 72.6857 24.2721C72.9341 23.9831 73.45 21.1899 76.3159 21.1899H83.519C83.519 21.1899 84.5889 20.9973 83.8056 21.8449ZM68.0047 23.9446C65.7884 23.9446 63.9924 22.1338 63.9924 19.8992C63.9924 17.6647 65.7884 15.8346 68.0047 15.8346C70.221 15.8346 72.017 17.6647 72.017 19.8992C72.017 22.1338 70.221 23.9446 68.0047 23.9446ZM66.7437 32.0545C66.7055 34.3276 66.7437 36.0614 66.7437 36.0614C66.3424 36.8704 64.9095 34.2121 64.7375 33.48C64.5465 32.748 65.005 32.2664 64.1834 32.1123C63.5911 32.016 62.8842 31.284 63.0753 30.4942C63.2472 29.7044 64.6802 30.8602 65.2916 29.1457C65.9221 27.412 64.7184 26.2369 63.4765 25.7939C62.2346 25.3316 60.8207 25.6012 59.9036 26.2369C59.0056 26.8726 59.0438 28.3367 58.356 28.2981C57.0377 28.1826 58.1076 26.1406 59.1776 25.216C60.1711 24.3491 61.5086 24.6959 61.776 24.2528C62.0244 23.8097 61.4321 22.6539 60.1138 22.5191C58.891 22.4035 57.8593 22.8851 57.8019 23.9638C57.7828 24.5032 57.5536 24.8692 56.9039 24.7729C56.2925 24.6766 55.7003 23.7519 55.5474 23.174C54.1717 23.4437 52.9872 22.6732 52.2038 21.8449C51.4396 20.9973 52.4904 21.1899 52.4904 21.1899H59.6935C62.5594 21.1899 63.0753 23.9831 63.3237 24.2721C63.5911 24.561 64.6229 24.6766 65.8266 25.8902C67.1067 27.2194 66.801 29.8007 66.7437 32.0545ZM52.2038 17.9536C52.9872 17.106 54.1717 16.3547 55.5474 16.6052C55.7003 16.0465 56.2925 15.1219 56.9039 15.0256C57.5536 14.91 57.7828 15.276 57.8019 15.8346C57.8593 16.8941 58.891 17.395 60.1138 17.2601C61.4321 17.1446 62.0244 15.9887 61.776 15.5457C61.5086 15.1026 60.1711 15.4301 59.1776 14.5825C58.1076 13.6386 57.0377 11.5967 58.356 11.5003C59.0438 11.4425 59.0056 12.9258 59.9036 13.5615C60.8207 14.178 62.2346 14.4477 63.4765 14.0046C64.7184 13.5615 65.9221 12.3865 65.2916 10.6527C64.6802 8.91902 63.2472 10.0748 63.0753 9.28503C62.8842 8.51449 63.5911 7.78247 64.1834 7.66689C65.005 7.51278 64.5465 7.05046 64.7375 6.31844C64.9095 5.58643 66.3424 2.9088 66.7437 3.71786C66.7437 3.71786 66.7055 5.45158 66.7437 7.72468C66.801 9.99778 67.1067 12.5598 65.8266 13.889C64.6229 15.1219 63.5911 15.2182 63.3237 15.5072C63.0753 15.7961 62.5594 18.6086 59.6935 18.6086H52.4904C52.4904 18.6086 51.4396 18.782 52.2038 17.9536ZM69.2657 7.72468C69.3039 5.45158 69.2657 3.71786 69.2657 3.71786C69.6669 2.9088 71.0999 5.58643 71.291 6.31844C71.4629 7.05046 71.0044 7.51278 71.8259 7.66689C72.4182 7.78247 73.1252 8.51449 72.9341 9.28503C72.7621 10.0748 71.3292 8.91902 70.7178 10.6527C70.0873 12.3865 71.291 13.5615 72.5329 14.0046C73.7748 14.4477 75.1886 14.178 76.1057 13.5615C77.0037 12.9258 76.9655 11.4425 77.6534 11.5003C78.9717 11.5967 77.9017 13.6386 76.8318 14.5825C75.8383 15.4301 74.5008 15.1026 74.2333 15.5457C73.9849 15.9887 74.5772 17.1446 75.8956 17.2601C77.1184 17.395 78.1501 16.8941 78.2074 15.8346C78.2265 15.276 78.4558 14.91 79.1054 15.0256C79.7168 15.1219 80.3091 16.0465 80.462 16.6052C81.8376 16.3547 83.0222 17.106 83.8056 17.9536C84.5889 18.782 83.519 18.6086 83.519 18.6086H76.3159C73.45 18.6086 72.9341 15.7961 72.6857 15.5072C72.4182 15.2182 71.3865 15.1219 70.1828 13.889C68.9027 12.5598 69.2084 9.99778 69.2657 7.72468ZM87.9898 19.8607C87.3211 19.0902 79.4876 11.1921 77.768 10.4023C76.4305 9.78588 74.9976 11.2884 74.4626 11.9819C74.2524 12.2324 73.3735 13.7156 72.8004 13.1763C71.8642 12.2901 74.711 9.82441 75.7618 9.49693C76.7362 9.16945 76.7362 8.63007 76.3732 8.32185C76.0102 7.99437 68.4441 0 68.1002 0C68.0811 0 68.0429 0.0192635 68.0047 0.0385271C67.9665 0.0192635 67.9283 0 67.9092 0C67.5652 0 59.9992 7.99437 59.6361 8.32185C59.2731 8.63007 59.5406 9.22724 60.1329 9.34282C60.9545 9.49693 64.3172 12.2709 63.209 13.1763C62.6549 13.6386 62.1391 12.7717 61.8143 12.2516C61.4512 11.693 59.9992 9.72809 58.2414 10.4023C56.4645 11.0958 48.6883 19.0902 48.0195 19.8607C48.0195 19.88 48.0195 19.88 48.0195 19.8992V19.9185C48.6883 20.7083 56.4645 28.7219 58.2414 29.3769C59.6552 29.9163 61.3557 28.3367 61.7569 27.7588C62.2919 27.0075 62.5403 26.1406 63.209 26.6222C64.5847 27.5469 60.7252 30.3786 59.9036 30.4364C59.063 30.4749 59.2731 31.1684 59.6361 31.4766C59.9992 31.7848 67.5652 39.7792 67.9092 39.7792C67.9283 39.7792 67.9665 39.76 68.0047 39.7407C68.0429 39.76 68.0811 39.7792 68.1002 39.7792C68.4441 39.7792 76.0102 31.7848 76.3732 31.4766C76.7362 31.1684 76.9273 30.629 76.1057 30.4364C75.2651 30.2245 71.5967 27.6047 72.8004 26.6222C73.5455 25.9865 74.1951 27.5469 74.4053 27.7973C74.9212 28.3945 76.4497 29.9548 77.768 29.3769C79.5067 28.6256 87.3211 20.7083 87.9898 19.9185V19.8992C87.9898 19.88 87.9898 19.88 87.9898 19.8607Z" fill="#03A0E3"/>
<path d="M10.3174 51.0096V51.1445C9.97347 51.183 9.66777 51.2215 9.40028 51.2793C9.1328 51.3371 8.86531 51.4912 8.57871 51.7417C8.38765 51.9343 8.25391 52.0691 8.17748 52.1269C8.12016 52.1847 8.04374 52.2618 7.94821 52.3388L3.72572 56.5575L8.78888 62.3173C9.17101 62.7604 9.51492 63.0494 9.78241 63.1649C10.069 63.2805 10.432 63.3576 10.8524 63.3961V63.5309H8.17748L2.61756 57.2125V62.0284C2.61756 62.9145 3.057 63.3768 3.955 63.3961V63.5309H0V63.3961C0.248381 63.3961 0.477657 63.3383 0.668719 63.2613C0.859782 63.1842 1.01263 63.0494 1.14638 62.8375C1.26101 62.6448 1.33744 62.3751 1.33744 62.0284V52.5122C1.33744 51.9921 1.20369 51.6261 0.936207 51.4527C0.668719 51.2601 0.363019 51.1638 0 51.1445V51.0096H3.955V51.1445C3.057 51.183 2.61756 51.6261 2.61756 52.5122V57.1354L7.37502 52.3388C7.37502 52.3388 7.39413 52.3388 7.41323 52.281C7.68072 52.0306 7.81446 51.838 7.81446 51.6646C7.81446 51.4527 7.73804 51.3371 7.58519 51.2793C7.43234 51.2215 7.20306 51.183 6.87826 51.1445V51.0096H10.3174Z" fill="#080808"/>
<path d="M14.4199 57.9832H18.3749L16.3497 52.0308H16.3115L14.4199 57.9832ZM17.2477 50.8557L20.9543 61.5855C21.1645 62.1441 21.3364 62.5487 21.5275 62.7991C21.6994 63.0495 21.8523 63.2036 22.0242 63.2807C22.1771 63.3385 22.3873 63.377 22.6356 63.3963V63.5311H18.566V63.3963C18.9863 63.3963 19.3111 63.3577 19.5404 63.2807C19.7506 63.2036 19.8652 62.9917 19.8652 62.645C19.8652 62.4524 19.827 62.1827 19.7124 61.8745C19.6933 61.8167 19.6742 61.7781 19.6742 61.7589L18.566 58.4455H14.2671L13.2736 61.5084C13.1398 61.9322 13.0825 62.279 13.0825 62.5294C13.0825 62.8762 13.1589 63.1073 13.35 63.2229C13.5219 63.3385 13.7703 63.3963 14.0951 63.3963V63.5311H11.1719V63.3963C11.5731 63.3577 11.917 63.2036 12.1654 62.934C12.4138 62.645 12.624 62.2212 12.815 61.6433L16.3306 50.8557H17.2477Z" fill="#080808"/>
<path d="M31.6842 51.4912H25.7421C25.2454 51.4912 24.8441 51.549 24.5384 51.6453C24.2327 51.7609 23.9844 51.9536 23.7933 52.204C23.6022 52.4737 23.4685 52.8397 23.3921 53.302H23.2583V51.0096H33.4229V51.2601L24.825 63.0686H30.7862C31.4549 63.0686 31.9708 63.0108 32.3529 62.8567C32.7159 62.7219 32.9834 62.5485 33.1554 62.3366C33.3082 62.1247 33.4802 61.8165 33.6521 61.4505H33.7859L33.2127 63.5502H23.1055V63.2805L31.6842 51.4912Z" fill="#080808"/>
<path d="M37.4746 57.9832H41.4296L39.4044 52.0308H39.3853L37.4746 57.9832ZM40.3024 50.8557L44.0281 61.5855C44.2191 62.1441 44.4102 62.5487 44.5822 62.7991C44.7541 63.0495 44.9261 63.2036 45.0789 63.2807C45.2509 63.3385 45.4419 63.377 45.6903 63.3963V63.5311H41.6398V63.3963C42.0601 63.3963 42.3849 63.3577 42.5951 63.2807C42.8244 63.2036 42.939 62.9917 42.939 62.645C42.939 62.4524 42.8817 62.1827 42.7862 61.8745C42.7671 61.8167 42.748 61.7781 42.748 61.7589L41.6398 58.4455H37.3409L36.3474 61.5084C36.2136 61.9322 36.1563 62.279 36.1563 62.5294C36.1563 62.8762 36.2327 63.1073 36.4047 63.2229C36.5766 63.3385 36.825 63.3963 37.1498 63.3963V63.5311H34.2266V63.3963C34.6469 63.3577 34.9717 63.2036 35.2392 62.934C35.4876 62.645 35.6977 62.2212 35.8888 61.6433L39.3853 50.8557H40.3024Z" fill="#080808"/>
<path d="M56.7866 51.0096V51.1445C56.4426 51.183 56.1369 51.2215 55.8695 51.2793C55.602 51.3371 55.3345 51.4912 55.067 51.7417C54.8759 51.9343 54.7231 52.0691 54.6658 52.1269C54.5893 52.1847 54.5129 52.2618 54.4365 52.3388L50.1949 56.5575L55.2581 62.3173C55.6402 62.7604 55.9841 63.0494 56.2707 63.1649C56.5382 63.2805 56.9012 63.3576 57.3406 63.3961V63.5309H54.6467L49.0867 57.2125V62.0284C49.0867 62.9145 49.5262 63.3768 50.4242 63.3961V63.5309H46.4883V63.3961C46.7367 63.3961 46.9468 63.3383 47.1379 63.2613C47.329 63.1842 47.4818 63.0494 47.6156 62.8375C47.7493 62.6448 47.8066 62.3751 47.8066 62.0284V52.5122C47.8066 51.9921 47.6729 51.6261 47.4054 51.4527C47.157 51.2601 46.8322 51.1638 46.4883 51.1445V51.0096H50.4242V51.1445C49.5262 51.183 49.0867 51.6261 49.0867 52.5122V57.1354L53.8633 52.3388C53.8633 52.3388 53.8633 52.3388 53.8824 52.281C54.1499 52.0306 54.2836 51.838 54.2836 51.6646C54.2836 51.4527 54.2072 51.3371 54.0544 51.2793C53.9015 51.2215 53.6722 51.183 53.3474 51.1445V51.0096H56.7866Z" fill="#080808"/>
<path d="M67.7602 56.7502V52.5507C67.7602 52.1462 67.6456 51.7994 67.4354 51.549C67.2062 51.2793 66.8623 51.1445 66.4037 51.1445V51.0096H70.3778V51.1445C69.9001 51.1445 69.5753 51.2793 69.3461 51.549C69.1359 51.7994 69.0404 52.1269 69.0404 52.5507V62.0284C69.0404 62.953 69.4798 63.3961 70.3778 63.3961V63.5502H66.4037V63.3961C66.8431 63.3961 67.168 63.2805 67.3972 63.0686C67.6456 62.8375 67.7602 62.4907 67.7602 62.0477V57.1354H60.6336V62.0284C60.6336 62.4714 60.7674 62.7989 60.9966 63.0494C61.245 63.2805 61.5698 63.3961 61.9902 63.3961V63.5502H58.0352V63.3961C58.4555 63.3961 58.7803 63.2805 59.0096 63.0494C59.2389 62.7989 59.3535 62.4714 59.3535 62.0284V52.5507C59.3535 51.6261 58.914 51.1445 58.0352 51.1445V51.0096H61.9902V51.1445C61.5125 51.1445 61.1877 51.2793 60.9584 51.549C60.7482 51.7994 60.6336 52.1269 60.6336 52.5507V56.7502H67.7602Z" fill="#080808"/>
<path d="M81.2792 51.0096V51.1445C80.8971 51.1445 80.5914 51.2601 80.3239 51.472C80.0755 51.6839 79.9418 52.0306 79.9418 52.5122V62.0284C79.9418 62.51 80.0755 62.8567 80.3621 63.0686C80.6296 63.2998 80.9353 63.3961 81.2792 63.3961V63.5309H77.3242V63.3961C77.6872 63.3961 77.9929 63.2998 78.2604 63.0879C78.5279 62.876 78.6617 62.5292 78.6617 62.0284V52.5122C78.6617 51.9921 78.5279 51.6261 78.2604 51.4527C77.9929 51.2601 77.6872 51.1445 77.3242 51.1445V51.0096H81.2792Z" fill="#080808"/>
<path d="M95.4 51.0096V51.1445C95.0752 51.2023 94.8268 51.2601 94.6549 51.3371C94.4638 51.4142 94.3301 51.5875 94.2346 51.8187C94.1199 52.0691 94.0817 52.4159 94.0817 52.8589V63.8584H93.9862L84.4521 53.1094V60.834C84.4521 61.4697 84.4712 61.9513 84.5286 62.2596C84.5668 62.5678 84.6432 62.7989 84.7387 62.9338C84.9489 63.2227 85.3119 63.3768 85.8278 63.3961V63.5309H82.7135V63.3961C83.0574 63.3961 83.344 63.319 83.535 63.1842C83.7261 63.0494 83.8598 62.7989 83.9363 62.4522C84.0318 62.0862 84.07 61.5661 84.07 60.8533V52.6663L83.6497 52.204C83.2867 51.7802 83.0001 51.5105 82.7708 51.4142C82.5606 51.2986 82.274 51.2023 81.9492 51.1445V51.0096H84.2993L93.6996 61.6239V53.5332C93.6996 52.936 93.6805 52.4737 93.6231 52.1655C93.5658 51.8765 93.4512 51.6261 93.241 51.4527C93.0309 51.2793 92.706 51.1638 92.2857 51.1445V51.0096H95.4Z" fill="#080808"/>
<path d="M107.638 51.0096V51.1445C107.333 51.2023 107.065 51.2986 106.855 51.472C106.645 51.6453 106.473 51.8765 106.32 52.1655C106.186 52.4351 106.014 52.8204 105.823 53.2827C105.804 53.302 105.766 53.3791 105.747 53.4754L102.155 63.8777H102.04L97.7985 52.6278C97.7985 52.6085 97.7794 52.57 97.7603 52.5315C97.6075 52.0499 97.3782 51.7031 97.1107 51.472C96.8432 51.2601 96.5184 51.1445 96.1172 51.1445V51.0096H100.206V51.1445C99.862 51.183 99.5754 51.2601 99.3653 51.3564C99.1742 51.4527 99.0596 51.7031 99.0596 52.0884C99.0596 52.1847 99.0978 52.3966 99.1933 52.7241C99.2124 52.7434 99.2124 52.7819 99.2315 52.8012C99.2315 52.8397 99.2315 52.8589 99.2506 52.8782L102.518 61.6816H102.537L105.346 53.4754C105.537 52.9167 105.632 52.4929 105.632 52.2232C105.632 51.7609 105.556 51.4912 105.365 51.3757C105.174 51.2408 104.887 51.183 104.524 51.1445V51.0096H107.638Z" fill="#080808"/>
<path d="M108.457 51.1445V51.0096H115.87V52.9745H115.756C115.756 51.9343 115.049 51.3949 113.654 51.3949H111.075V57.0969H113.348C113.788 57.0969 114.208 57.0199 114.552 56.8658C114.915 56.7309 115.106 56.3842 115.163 55.8641H115.297V58.6958H115.163C115.106 58.3683 115.01 58.1372 114.877 57.9638C114.724 57.7904 114.59 57.6748 114.456 57.617C114.323 57.5592 114.189 57.5207 114.093 57.5207C113.883 57.5015 113.673 57.4822 113.463 57.4822H111.075V61.9321C111.075 62.2596 111.132 62.5485 111.266 62.7989C111.38 63.0301 111.686 63.1649 112.145 63.1649H113.979C114.437 63.1649 114.8 63.0879 115.087 62.953C115.373 62.8375 115.603 62.6448 115.756 62.4137C115.928 62.1825 116.061 61.9128 116.176 61.5853H116.291L115.87 63.5502H108.457V63.3961H108.629C108.896 63.3961 109.145 63.2998 109.412 63.0879C109.661 62.8567 109.794 62.51 109.794 62.0284V52.5893C109.794 52.204 109.699 51.8572 109.527 51.5875C109.355 51.2986 109.049 51.1445 108.629 51.1445H108.457Z" fill="#080808"/>
<path d="M123.656 53.4174H123.523C123.446 52.8009 123.198 52.2808 122.739 51.8185C122.3 51.3562 121.707 51.1443 120.981 51.1443C120.504 51.1443 120.064 51.2599 119.701 51.4718C119.319 51.7029 119.033 52.0111 118.842 52.3964C118.631 52.8009 118.536 53.244 118.536 53.7449C118.536 54.1301 118.593 54.4961 118.708 54.7851C118.842 55.0933 119.013 55.363 119.243 55.5942C119.491 55.8253 119.778 56.0372 120.083 56.2491C120.408 56.4418 120.848 56.6922 121.383 57.0004C122.3 57.5205 123.007 58.0214 123.523 58.5222C124.019 59.0231 124.268 59.6973 124.268 60.5834C124.268 61.1035 124.134 61.6236 123.866 62.1245C123.599 62.6253 123.179 63.0299 122.625 63.3381C122.07 63.6656 121.402 63.8197 120.58 63.8197C120.064 63.8197 119.606 63.7619 119.224 63.6463C118.822 63.55 118.421 63.3959 118.02 63.184C117.848 63.1455 117.733 63.1069 117.676 63.1069C117.561 63.1069 117.485 63.1455 117.447 63.2418C117.409 63.3188 117.351 63.5115 117.294 63.7812H117.16V60.6412H117.294C117.504 61.5659 117.886 62.2593 118.478 62.7409C119.052 63.2033 119.778 63.4344 120.618 63.4344C121.249 63.4344 121.746 63.3188 122.128 63.0877C122.51 62.8372 122.758 62.5483 122.911 62.2208C123.064 61.8741 123.14 61.5273 123.14 61.1998C123.14 60.4871 122.911 59.9092 122.491 59.4661C122.07 59.0231 121.421 58.5607 120.561 58.0984C119.969 57.7709 119.529 57.5205 119.243 57.3471C118.956 57.1545 118.65 56.9233 118.364 56.6344C118.058 56.3454 117.829 55.9987 117.657 55.6134C117.485 55.2089 117.389 54.7658 117.389 54.2457C117.389 53.6678 117.542 53.0899 117.867 52.5505C118.173 52.0111 118.612 51.5873 119.185 51.2599C119.74 50.9324 120.389 50.7783 121.115 50.7783C121.65 50.7783 122.223 50.8553 122.797 51.048C122.873 51.0865 123.007 51.125 123.16 51.125C123.331 51.125 123.465 50.9902 123.523 50.7397H123.656V53.4174Z" fill="#080808"/>
<path d="M135.999 53.4582H135.865C135.808 52.6298 135.559 52.1097 135.158 51.8593C134.738 51.6281 134.241 51.4933 133.629 51.4933H131.165V62.0304C131.165 62.9166 131.604 63.3789 132.502 63.3982V63.533H128.547V63.3982C128.929 63.3982 129.235 63.2826 129.503 63.0707C129.751 62.878 129.885 62.5313 129.885 62.0304V51.4933H127.401C126.809 51.4933 126.293 51.6281 125.891 51.8593C125.49 52.1097 125.242 52.6298 125.185 53.4582H125.051V50.3953H125.185C125.261 50.5301 125.337 50.6457 125.414 50.7035C125.49 50.7805 125.567 50.8383 125.681 50.8769C125.777 50.9346 125.911 50.9539 126.044 50.9732C126.197 51.0117 126.369 51.0117 126.56 51.0117H134.604C135.139 51.0117 135.559 50.7998 135.865 50.3953H135.999V53.4582Z" fill="#080808"/>
<path d="M25.3203 77.8072H25.7789V74.1086L29.2944 77.9998V73.1454H28.8359V76.8633L25.3203 72.972V77.8072ZM31.2624 77.8072H31.7209L32.3705 76.2854H34.3003L34.9499 77.8072H35.4084L33.3258 73.0106L31.2624 77.8072ZM32.5234 75.9194L33.3258 74.0123L34.1474 75.9194H32.5234ZM38.1024 77.8072H38.561V73.5307H39.7838V73.1454H36.8796V73.5307H38.1024V77.8072ZM41.7517 77.8072H42.2103V73.1454H41.7517V77.8072ZM46.9868 77.942C48.3625 77.942 49.4706 76.9596 49.4706 75.4763C49.4706 74.0123 48.3625 73.0106 46.9868 73.0106C45.6112 73.0106 44.4839 74.0123 44.4839 75.4763C44.4839 76.9596 45.6112 77.942 46.9868 77.942ZM46.9868 77.576C45.8404 77.576 44.9616 76.7092 44.9616 75.4763C44.9616 74.2627 45.8404 73.3958 46.9868 73.3958C48.1141 73.3958 48.993 74.2627 48.993 75.4763C48.993 76.7092 48.1141 77.576 46.9868 77.576ZM51.7443 77.8072H52.2028V74.1086L55.6993 77.9998V73.1454H55.2598V76.8633L51.7443 72.972V77.8072ZM57.6672 77.8072H58.1449L58.7754 76.2854H60.7242L61.3547 77.8072H61.8133L59.7498 73.0106L57.6672 77.8072ZM58.9282 75.9194L59.7498 74.0123L60.5523 75.9194H58.9282ZM63.8003 77.8072H65.7301V77.4412H64.2398V73.1454H63.8003V77.8072ZM73.1051 76.8825C72.6656 77.3063 72.0542 77.576 71.4237 77.576C70.2965 77.576 69.5131 76.5936 69.5131 75.4763C69.5131 74.2627 70.4111 73.3958 71.4428 73.3958C71.9014 73.3958 72.5128 73.5114 73.1051 74.1086V73.5692C72.4746 73.1069 71.9014 73.0106 71.4237 73.0106C70.1054 73.0106 69.0355 74.0315 69.0355 75.4763C69.0355 76.8633 70.0099 77.942 71.4237 77.942C71.9396 77.942 72.5701 77.8072 73.1051 77.4027V76.8825ZM77.4804 77.942C78.8561 77.942 79.9642 76.9596 79.9642 75.4763C79.9642 74.0123 78.8561 73.0106 77.4804 73.0106C76.1048 73.0106 74.9775 74.0123 74.9775 75.4763C74.9775 76.9596 76.1048 77.942 77.4804 77.942ZM77.4804 77.576C76.3532 77.576 75.4552 76.7092 75.4552 75.4763C75.4552 74.2627 76.3532 73.3958 77.4804 73.3958C78.6077 73.3958 79.5057 74.2627 79.5057 75.4763C79.5057 76.7092 78.6077 77.576 77.4804 77.576ZM81.9322 77.8072H82.3525L82.792 74.359L84.4924 77.9998L86.1929 74.359L86.6323 77.8072H87.0527L86.4222 72.972L84.4924 77.1137L82.5627 72.972L81.9322 77.8072ZM89.2308 77.8072H89.6702V75.6304H90.5109C90.9886 75.6304 91.8866 75.5148 91.8866 74.3783C91.8866 73.261 91.0077 73.1454 90.5109 73.1454H89.2308V77.8072ZM89.6702 73.5307H90.4918C90.6638 73.5307 91.428 73.5114 91.428 74.3783C91.428 75.1681 90.8166 75.2451 90.4918 75.2451H89.6702V73.5307ZM93.587 77.8072H94.0456L94.6952 76.2854H96.644L97.2745 77.8072H97.7331L95.6696 73.0106L93.587 77.8072ZM94.848 75.9194L95.6696 74.0123L96.4721 75.9194H94.848ZM99.7201 77.8072H100.16V74.1086L103.675 77.9998V73.1454H103.217V76.8633L99.7201 72.972V77.8072ZM107.076 77.8072H107.535V75.6689L108.987 73.1454H108.49L107.305 75.2644L106.121 73.1454H105.605L107.076 75.6689V77.8072Z" fill="black"/>
</svg>
