<svg width="18" height="26" viewBox="0 0 18 26" fill="none" xmlns="http://www.w3.org/2000/svg">
<path d="M14.5669 3.36744L14.5669 3.3675C15.9308 4.75442 16.7379 6.80295 16.8781 8.9629C17.0183 11.122 16.4847 13.2839 15.3064 14.8813L15.2952 14.8965L15.2846 14.9121L8.95086 24.2157L2.60649 14.8974L2.59585 14.8817L2.58462 14.8665C1.41223 13.2773 0.880856 11.1195 1.02228 8.96168C1.16374 6.8032 1.97093 4.75449 3.33489 3.3675L3.33495 3.36744C4.83934 1.83743 6.83056 1 8.9509 1C11.0708 1 13.0625 1.83745 14.5669 3.36744ZM4.76633 9.01911C4.76633 11.3872 6.66423 13.3419 9.03352 13.3419C11.4028 13.3419 13.3007 11.3872 13.3007 9.01911C13.3007 6.65098 11.4028 4.69628 9.03352 4.69628C6.66423 4.69628 4.76633 6.65098 4.76633 9.01911Z" fill="#EE933F" stroke="white" stroke-width="2"/>
</svg>
