<svg width="12" height="12" viewBox="0 0 12 12" fill="none" xmlns="http://www.w3.org/2000/svg">
<path d="M6 0C2.6916 0 0 2.6916 0 6C0 9.3084 2.6916 12 6 12C9.3084 12 12 9.3084 12 6C12 2.6916 9.3084 0 6 0ZM9.1126 6.1652L4.7126 9.1652C4.6788 9.1882 4.6394 9.2 4.6 9.2C4.568 9.2 4.5358 9.1924 4.5066 9.1768C4.441 9.1422 4.4 9.0742 4.4 9V3C4.4 2.9258 4.441 2.8578 4.5066 2.8232C4.5722 2.7884 4.6514 2.7932 4.7128 2.8348L9.1128 5.8348C9.1672 5.872 9.2 5.9338 9.2 6C9.2 6.0662 9.1672 6.128 9.1126 6.1652Z" fill="#878DA1"/>
</svg>
