<svg width="13" height="13" viewBox="0 0 13 13" fill="none" xmlns="http://www.w3.org/2000/svg">
<path fill-rule="evenodd" clip-rule="evenodd" d="M7.38171 6.4999L12.8174 1.06431C13.0609 0.820823 13.0609 0.426097 12.8174 0.182613C12.5739 -0.060871 12.1792 -0.060871 11.9357 0.182613L6.5 5.6182L1.06432 0.183444C0.820836 -0.06004 0.426104 -0.06004 0.182616 0.183444C-0.0608719 0.426928 -0.0608719 0.821654 0.182616 1.06514L5.61829 6.50073L0.183447 11.9355C-0.0600409 12.179 -0.0600409 12.5737 0.183447 12.8172C0.305606 12.9385 0.46433 13 0.623885 13C0.78344 13 0.942995 12.9393 1.06432 12.8172L6.5 7.38159L11.9357 12.8172C12.0578 12.9385 12.2166 13 12.3761 13C12.5357 13 12.6952 12.9393 12.8166 12.8172C13.06 12.5737 13.06 12.179 12.8166 11.9355L7.38171 6.4999Z" fill="#878DA1"/>
</svg>
